<svg width="1650" height="844" viewBox="0 0 1650 844" fill="none" xmlns="http://www.w3.org/2000/svg">
<path d="M483.053 776.499C483.881 776.47 484.529 775.774 484.499 774.947C484.47 774.119 483.774 773.471 482.947 773.501L483.053 776.499ZM267 345L268.368 344.385L267 345ZM395 187.5L380.594 177.885L379.47 195.169L395 187.5ZM386.232 185.428C384.249 185.301 382.258 185.173 380.259 185.045L380.068 188.039C382.066 188.167 384.057 188.294 386.039 188.422L386.232 185.428ZM374.34 184.669C372.367 184.545 370.386 184.421 368.4 184.297L368.214 187.291C370.199 187.415 372.179 187.539 374.151 187.663L374.34 184.669ZM362.433 183.929C360.465 183.809 358.491 183.69 356.513 183.572L356.334 186.566C358.311 186.685 360.283 186.804 362.25 186.924L362.433 183.929ZM350.563 183.22C348.583 183.104 346.598 182.99 344.61 182.876L344.439 185.872C346.426 185.985 348.409 186.099 350.388 186.215L350.563 183.22ZM338.676 182.544C336.694 182.434 334.709 182.326 332.721 182.22L332.561 185.216C334.547 185.322 336.531 185.43 338.51 185.539L338.676 182.544ZM326.774 181.908C324.795 181.806 322.814 181.707 320.831 181.609L320.683 184.605C322.664 184.703 324.643 184.803 326.62 184.904L326.774 181.908ZM314.876 181.322C312.894 181.228 310.911 181.137 308.927 181.049L308.794 184.046C310.775 184.134 312.756 184.225 314.735 184.318L314.876 181.322ZM302.978 180.791C300.994 180.707 299.01 180.626 297.026 180.548L296.908 183.546C298.889 183.624 300.871 183.705 302.852 183.788L302.978 180.791ZM291.071 180.322C289.086 180.25 287.102 180.181 285.118 180.114L285.018 183.113C286.998 183.179 288.98 183.248 290.961 183.32L291.071 180.322ZM279.168 179.925C277.179 179.865 275.191 179.809 273.205 179.756L273.125 182.755C275.107 182.808 277.092 182.864 279.078 182.924L279.168 179.925ZM267.252 179.607C265.266 179.561 263.281 179.519 261.299 179.481L261.242 182.481C263.219 182.519 265.2 182.561 267.183 182.607L267.252 179.607ZM255.331 179.378C253.344 179.348 251.361 179.322 249.382 179.3L249.35 182.3C251.324 182.322 253.303 182.348 255.285 182.378L255.331 179.378ZM243.42 179.248C241.426 179.235 239.436 179.227 237.451 179.224L237.446 182.224C239.426 182.227 241.411 182.235 243.401 182.248L243.42 179.248ZM231.512 179.229C229.513 179.235 227.52 179.247 225.533 179.264L225.559 182.264C227.541 182.247 229.529 182.235 231.522 182.229L231.512 179.229ZM219.57 179.333C217.587 179.361 215.61 179.395 213.641 179.435L213.701 182.435C215.665 182.395 217.636 182.361 219.613 182.333L219.57 179.333ZM207.644 179.576C205.654 179.629 203.671 179.688 201.697 179.754L201.797 182.752C203.764 182.687 205.74 182.628 207.724 182.575L207.644 179.576ZM195.744 179.974C193.74 180.055 191.747 180.143 189.763 180.239L189.908 183.236C191.883 183.14 193.869 183.052 195.865 182.972L195.744 179.974ZM183.845 180.548C181.837 180.661 179.84 180.782 177.856 180.911L178.05 183.905C180.026 183.776 182.014 183.656 184.014 183.543L183.845 180.548ZM171.908 181.326C169.919 181.474 167.943 181.631 165.981 181.796L166.234 184.786C168.185 184.621 170.152 184.465 172.131 184.318L171.908 181.326ZM160.001 182.333C158.023 182.522 156.06 182.72 154.112 182.928L154.431 185.911C156.367 185.704 158.318 185.507 160.286 185.32L160.001 182.333ZM148.13 183.606C146.143 183.843 144.174 184.092 142.224 184.353L142.621 187.326C144.557 187.068 146.513 186.821 148.487 186.584L148.13 183.606ZM136.304 185.187C134.309 185.483 132.336 185.792 130.386 186.114L130.875 189.074C132.809 188.755 134.766 188.448 136.744 188.154L136.304 185.187ZM124.53 187.134C122.532 187.5 120.56 187.881 118.614 188.278L119.213 191.217C121.139 190.825 123.092 190.448 125.071 190.085L124.53 187.134ZM112.824 189.522C110.83 189.973 108.867 190.441 106.936 190.928L107.669 193.837C109.575 193.357 111.515 192.894 113.486 192.448L112.824 189.522ZM101.213 192.45C99.2359 193.005 97.296 193.581 95.3951 194.179L96.2945 197.041C98.1646 196.453 100.075 195.886 102.024 195.339L101.213 192.45ZM89.7533 196.056C87.8144 196.739 85.9211 197.448 84.0754 198.182L85.1846 200.97C86.9914 200.251 88.8472 199.556 90.7504 198.886L89.7533 196.056ZM78.5538 200.523C76.6878 201.366 74.8778 202.24 73.1265 203.145L74.5044 205.81C76.2061 204.93 77.9682 204.079 79.7887 203.257L78.5538 200.523ZM67.8219 206.095C66.0715 207.143 64.3914 208.229 62.7848 209.355L64.5067 211.812C66.051 210.729 67.6705 209.682 69.3628 208.669L67.8219 206.095ZM57.9273 213.072C56.3397 214.402 54.8443 215.781 53.4455 217.212L55.591 219.309C56.9162 217.953 58.338 216.641 59.8535 215.372L57.9273 213.072ZM49.438 221.798C48.1714 223.43 47.0191 225.121 45.9865 226.874L48.5713 228.397C49.5367 226.758 50.6166 225.172 51.8079 223.638L49.438 221.798ZM43.2326 232.367C42.4487 234.241 41.7906 236.176 41.2628 238.172L44.1631 238.939C44.6557 237.076 45.2695 235.272 46.0003 233.524L43.2326 232.367ZM40.0905 244.221C39.8398 246.202 39.7072 248.236 39.6956 250.323L42.6955 250.34C42.7065 248.369 42.8316 246.455 43.0668 244.597L40.0905 244.221ZM39.9876 256.37C40.1862 258.355 40.4864 260.384 40.8902 262.458L43.8349 261.885C43.4479 259.897 43.1616 257.959 42.9727 256.071L39.9876 256.37ZM42.2668 268.29C42.7896 270.183 43.3935 272.112 44.0802 274.077L46.9123 273.088C46.2465 271.182 45.6627 269.317 45.1586 267.491L42.2668 268.29ZM46.2316 279.703C46.627 280.657 47.0408 281.619 47.4734 282.589L50.2134 281.368C49.7914 280.421 49.388 279.483 49.003 278.555L46.2316 279.703ZM47.4734 282.589C47.9168 283.584 48.3638 284.557 48.8143 285.509L51.5259 284.225C51.0853 283.295 50.6478 282.342 50.2134 281.368L47.4734 282.589ZM51.5598 290.967C52.5684 292.852 53.5935 294.64 54.6348 296.336L57.191 294.765C56.1826 293.124 55.187 291.387 54.2049 289.552L51.5598 290.967ZM57.9631 301.365C59.2335 303.143 60.5263 304.796 61.8411 306.331L64.1194 304.379C62.865 302.915 61.6261 301.331 60.4039 299.621L57.9631 301.365ZM66.1084 310.831C67.6619 312.302 69.2429 313.627 70.8504 314.813L72.6316 312.399C71.1269 311.289 69.6397 310.044 68.1715 308.653L66.1084 310.831ZM76.1115 318.161C78.0021 319.183 79.922 320.035 81.8686 320.732L82.8795 317.907C81.0752 317.262 79.2942 316.471 77.5376 315.522L76.1115 318.161ZM87.924 322.396C89.9719 322.799 92.0413 323.053 94.129 323.174L94.3026 320.179C92.3424 320.065 90.4088 319.828 88.5027 319.453L87.924 322.396ZM100.353 323.161C102.394 323.042 104.449 322.816 106.516 322.497L106.059 319.532C104.076 319.838 102.116 320.053 100.179 320.167L100.353 323.161ZM112.58 321.318C114.556 320.86 116.543 320.331 118.538 319.745L117.692 316.866C115.746 317.439 113.815 317.952 111.902 318.396L112.58 321.318ZM124.389 317.877C126.293 317.225 128.204 316.531 130.122 315.805L129.06 312.999C127.167 313.716 125.286 314.399 123.417 315.039L124.389 317.877ZM135.797 313.579C137.669 312.822 139.547 312.044 141.428 311.253L140.266 308.487C138.393 309.274 136.529 310.047 134.673 310.798L135.797 313.579ZM147.026 308.877C148.882 308.085 150.738 307.29 152.598 306.498L151.424 303.738C149.561 304.53 147.7 305.327 145.848 306.119L147.026 308.877ZM158.179 304.148C160.045 303.374 161.912 302.612 163.778 301.872L162.672 299.083C160.788 299.831 158.906 300.598 157.029 301.378L158.179 304.148ZM169.399 299.715C171.296 299.015 173.19 298.346 175.082 297.716L174.134 294.87C172.208 295.511 170.283 296.191 168.36 296.901L169.399 299.715ZM180.82 295.933C182.756 295.378 184.687 294.874 186.611 294.43L185.938 291.507C183.956 291.964 181.974 292.481 179.993 293.05L180.82 295.933ZM192.455 293.276C194.429 292.954 196.394 292.707 198.35 292.544L198.101 289.554C196.061 289.724 194.017 289.981 191.972 290.315L192.455 293.276ZM204.274 292.32C206.247 292.339 208.209 292.456 210.159 292.682L210.504 289.702C208.444 289.463 206.376 289.34 204.303 289.32L204.274 292.32ZM215.946 293.69C217.833 294.133 219.71 294.691 221.574 295.374L222.606 292.558C220.627 291.832 218.635 291.24 216.633 290.769L215.946 293.69ZM226.992 297.739C228.686 298.601 230.371 299.579 232.046 300.681L233.695 298.175C231.929 297.013 230.148 295.979 228.353 295.065L226.992 297.739ZM236.778 304.153C238.272 305.368 239.758 306.69 241.235 308.128L243.328 305.978C241.789 304.481 240.236 303.098 238.669 301.825L236.778 304.153ZM245.306 312.415C246.569 313.848 247.824 315.371 249.071 316.99L251.448 315.159C250.162 313.491 248.865 311.916 247.557 310.431L245.306 312.415ZM252.623 321.894C253.695 323.464 254.759 325.109 255.817 326.832L258.373 325.262C257.292 323.5 256.201 321.815 255.101 320.203L252.623 321.894ZM258.893 332.101C259.822 333.773 260.744 335.508 261.661 337.308L264.334 335.947C263.402 334.116 262.462 332.349 261.515 330.644L258.893 332.101ZM264.318 342.751C264.757 343.69 265.196 344.644 265.632 345.615L268.368 344.385C267.925 343.4 267.481 342.432 267.034 341.479L264.318 342.751ZM265.632 345.615C266.051 346.546 266.461 347.472 266.864 348.392L269.612 347.189C269.206 346.26 268.791 345.325 268.368 344.385L265.632 345.615ZM269.188 353.849C269.938 355.663 270.657 357.456 271.345 359.227L274.141 358.141C273.445 356.349 272.719 354.536 271.96 352.702L269.188 353.849ZM273.445 364.835C274.11 366.68 274.741 368.502 275.337 370.3L278.185 369.356C277.58 367.533 276.941 365.687 276.268 363.818L273.445 364.835ZM277.136 375.998C277.701 377.884 278.227 379.743 278.714 381.576L281.614 380.804C281.118 378.941 280.583 377.052 280.01 375.137L277.136 375.998ZM280.145 387.348C280.584 389.262 280.979 391.147 281.332 393.003L284.28 392.443C283.919 390.549 283.516 388.628 283.069 386.678L280.145 387.348ZM282.323 398.865C282.61 400.816 282.849 402.735 283.041 404.622L286.025 404.319C285.829 402.386 285.585 400.423 285.291 398.428L282.323 398.865ZM283.492 410.488C283.594 412.47 283.642 414.417 283.637 416.328L286.637 416.335C286.642 414.369 286.592 412.369 286.488 410.334L283.492 410.488ZM283.459 422.114C283.34 424.102 283.161 426.051 282.926 427.963L285.903 428.33C286.146 426.355 286.33 424.343 286.453 422.294L283.459 422.114ZM282.028 433.711C281.662 435.633 281.237 437.516 280.754 439.364L283.656 440.123C284.157 438.209 284.597 436.26 284.975 434.271L282.028 433.711ZM279.081 444.955C278.456 446.806 277.77 448.62 277.027 450.399L279.796 451.555C280.565 449.712 281.275 447.833 281.923 445.915L279.081 444.955ZM274.604 455.683C273.734 457.422 272.806 459.127 271.824 460.802L274.412 462.319C275.427 460.589 276.386 458.825 277.286 457.026L274.604 455.683ZM268.719 465.734C267.636 467.341 266.502 468.92 265.319 470.473L267.705 472.291C268.922 470.693 270.09 469.067 271.207 467.41L268.719 465.734ZM261.649 475.027C260.393 476.505 259.091 477.96 257.747 479.395L259.936 481.446C261.312 479.978 262.646 478.487 263.935 476.97L261.649 475.027ZM253.655 483.573C252.267 484.93 250.842 486.27 249.381 487.593L251.395 489.817C252.883 488.469 254.337 487.103 255.753 485.717L253.655 483.573ZM244.945 491.473C243.464 492.725 241.952 493.963 240.41 495.19L242.278 497.537C243.841 496.293 245.377 495.036 246.882 493.764L244.945 491.473ZM235.757 498.793C234.196 499.971 232.609 501.139 230.998 502.299L232.751 504.733C234.379 503.561 235.984 502.38 237.564 501.188L235.757 498.793ZM226.191 505.689C224.584 506.8 222.957 507.905 221.31 509.006L222.977 511.5C224.636 510.392 226.277 509.278 227.898 508.156L226.191 505.689ZM216.361 512.264C214.724 513.327 213.07 514.387 211.402 515.445L213.009 517.979C214.685 516.916 216.348 515.85 217.995 514.78L216.361 512.264ZM206.39 518.594C204.723 519.632 203.043 520.67 201.353 521.708L202.923 524.264C204.618 523.223 206.303 522.182 207.976 521.141L206.39 518.594ZM196.309 524.792C194.626 525.816 192.935 526.842 191.236 527.872L192.79 530.438C194.49 529.408 196.184 528.38 197.869 527.354L196.309 524.792ZM186.174 530.937C184.489 531.958 182.798 532.983 181.103 534.013L182.661 536.577C184.354 535.548 186.044 534.524 187.728 533.504L186.174 530.937ZM176.035 537.104C174.355 538.133 172.671 539.168 170.987 540.211L172.566 542.762C174.246 541.722 175.925 540.689 177.602 539.662L176.035 537.104ZM165.943 543.356C164.272 544.405 162.601 545.463 160.931 546.531L162.548 549.058C164.21 547.995 165.874 546.942 167.539 545.896L165.943 543.356ZM155.94 549.757C154.284 550.839 152.631 551.931 150.982 553.035L152.651 555.528C154.29 554.431 155.934 553.344 157.581 552.268L155.94 549.757ZM146.064 556.373C144.431 557.496 142.804 558.632 141.184 559.782L142.92 562.228C144.528 561.087 146.143 559.96 147.764 558.844L146.064 556.373ZM136.362 563.26C134.763 564.433 133.173 565.62 131.591 566.823L133.407 569.211C134.975 568.019 136.551 566.842 138.136 565.679L136.362 563.26ZM126.887 570.472C126.108 571.088 125.331 571.708 124.558 572.333L126.442 574.667C127.208 574.049 127.977 573.435 128.748 572.824L126.887 570.472ZM124.558 572.333C123.78 572.961 123.003 573.595 122.228 574.236L124.139 576.549C124.906 575.915 125.674 575.288 126.442 574.667L124.558 572.333ZM117.592 578.16C116.072 579.477 114.56 580.818 113.059 582.182L115.077 584.402C116.56 583.054 118.054 581.729 119.556 580.427L117.592 578.16ZM108.611 586.325C107.151 587.718 105.706 589.132 104.278 590.566L106.404 592.683C107.813 591.268 109.24 589.871 110.682 588.495L108.611 586.325ZM100.049 594.926C98.6581 596.399 97.2877 597.89 95.9413 599.399L98.1794 601.397C99.5066 599.91 100.858 598.439 102.231 596.985L100.049 594.926ZM91.9608 603.993C90.6545 605.548 89.3759 607.119 88.1284 608.704L90.4859 610.559C91.7129 609 92.9713 607.454 94.2577 605.923L91.9608 603.993ZM84.4418 613.557C83.2419 615.196 82.0774 616.848 80.9521 618.513L83.4375 620.193C84.541 618.561 85.6837 616.939 86.8623 615.33L84.4418 613.557ZM77.6289 623.652C76.5555 625.392 75.5273 627.143 74.5483 628.904L77.1703 630.361C78.1263 628.642 79.1313 626.93 80.1819 625.228L77.6289 623.652ZM71.7153 634.312C70.8069 636.16 69.9558 638.018 69.1665 639.883L71.9293 641.052C72.6956 639.241 73.523 637.435 74.4077 635.635L71.7153 634.312ZM66.965 645.565C66.2793 647.518 65.6652 649.478 65.128 651.441L68.0216 652.233C68.5393 650.341 69.1321 648.449 69.7956 646.559L66.965 645.565ZM63.7366 657.424C63.3507 659.447 63.0513 661.471 62.8442 663.496L65.8287 663.801C66.0266 661.866 66.3131 659.928 66.6834 657.987L63.7366 657.424ZM62.5046 669.668C62.4908 671.726 62.5784 673.78 62.7735 675.829L65.76 675.545C65.5748 673.6 65.4914 671.647 65.5046 669.688L62.5046 669.668ZM63.6865 681.955C64.0948 683.953 64.6121 685.943 65.2437 687.921L68.1016 687.008C67.5029 685.134 67.0127 683.248 66.6258 681.355L63.6865 681.955ZM67.428 693.684C68.2518 695.555 69.1849 697.412 70.2313 699.254L72.8395 697.771C71.8428 696.018 70.9558 694.252 70.1736 692.475L67.428 693.684ZM73.4805 704.393C74.6355 706.048 75.8884 707.687 77.2424 709.31L79.5457 707.388C78.2454 705.829 77.045 704.258 75.9405 702.676L73.4805 704.393ZM81.3295 713.838C82.7211 715.268 84.1969 716.684 85.7591 718.084L87.7611 715.849C86.2482 714.494 84.822 713.126 83.4797 711.746L81.3295 713.838ZM90.4236 722.01C91.9864 723.249 93.6218 724.473 95.3315 725.684L97.0648 723.235C95.3977 722.055 93.8057 720.863 92.2867 719.659L90.4236 722.01ZM100.342 729.052C102.048 730.142 103.819 731.219 105.655 732.283L107.159 729.688C105.359 728.645 103.625 727.59 101.957 726.524L100.342 729.052ZM110.837 735.156C112.62 736.103 114.458 737.037 116.354 737.96L117.667 735.263C115.802 734.355 113.994 733.436 112.243 732.506L110.837 735.156ZM121.801 740.509C123.591 741.314 125.428 742.109 127.311 742.894L128.466 740.125C126.607 739.35 124.795 738.566 123.031 737.773L121.801 740.509ZM133.105 745.219C134.914 745.918 136.762 746.608 138.652 747.289L139.669 744.467C137.801 743.793 135.973 743.111 134.186 742.421L133.105 745.219ZM144.323 749.266C146.253 749.916 148.222 750.557 150.232 751.189L151.132 748.327C149.141 747.701 147.191 747.066 145.28 746.422L144.323 749.266ZM155.953 752.932C157.825 753.485 159.731 754.03 161.67 754.567L162.471 751.676C160.548 751.143 158.658 750.603 156.802 750.055L155.953 752.932ZM167.586 756.157C169.559 756.67 171.565 757.176 173.604 757.675L174.316 754.761C172.292 754.266 170.3 753.763 168.342 753.253L167.586 756.157ZM179.292 759.025C181.216 759.469 183.168 759.906 185.149 760.336L185.786 757.404C183.817 756.977 181.878 756.543 179.966 756.102L179.292 759.025ZM191.175 761.607C193.159 762.013 195.171 762.412 197.21 762.805L197.777 759.859C195.749 759.468 193.749 759.071 191.776 758.668L191.175 761.607ZM202.965 763.883C204.907 764.236 206.873 764.584 208.863 764.926L209.371 761.969C207.39 761.629 205.434 761.283 203.502 760.931L202.965 763.883ZM214.906 765.933C216.945 766.263 219.008 766.587 221.096 766.905L221.548 763.939C219.469 763.623 217.415 763.3 215.386 762.972L214.906 765.933ZM226.864 767.759C228.802 768.037 230.76 768.311 232.739 768.579L233.142 765.607C231.171 765.339 229.221 765.067 227.291 764.789L226.864 767.759ZM238.738 769.369C240.759 769.627 242.8 769.88 244.863 770.128L245.22 767.149C243.165 766.902 241.131 766.651 239.118 766.393L238.738 769.369ZM250.98 770.839C252.898 771.056 254.835 771.268 256.789 771.475L257.106 768.492C255.158 768.285 253.228 768.074 251.316 767.858L250.98 770.839ZM262.705 772.083C264.695 772.281 266.703 772.475 268.729 772.664L269.007 769.677C266.988 769.489 264.986 769.296 263.003 769.098L262.705 772.083ZM274.86 773.217C276.913 773.396 278.984 773.57 281.073 773.74L281.315 770.75C279.232 770.581 277.167 770.407 275.12 770.228L274.86 773.217ZM286.882 774.196C288.833 774.344 290.801 774.488 292.783 774.627L292.994 771.635C291.017 771.495 289.055 771.352 287.109 771.204L286.882 774.196ZM298.778 775.035C300.792 775.167 302.821 775.294 304.866 775.418L305.047 772.423C303.007 772.3 300.983 772.173 298.974 772.041L298.778 775.035ZM311.049 775.776C313.061 775.888 315.087 775.995 317.129 776.099L317.281 773.103C315.244 772.999 313.222 772.892 311.215 772.781L311.049 775.776ZM322.978 776.383C324.942 776.475 326.918 776.562 328.909 776.646L329.035 773.649C327.049 773.565 325.077 773.478 323.118 773.387L322.978 776.383ZM334.921 776.887C336.939 776.964 338.97 777.037 341.015 777.107L341.117 774.108C339.076 774.039 337.048 773.966 335.035 773.89L334.921 776.887ZM347.191 777.304C349.229 777.364 351.279 777.422 353.344 777.475L353.422 774.476C351.361 774.423 349.314 774.366 347.281 774.305L347.191 777.304ZM359.187 777.617C361.147 777.661 363.118 777.701 365.102 777.739L365.158 774.739C363.178 774.702 361.21 774.661 359.254 774.617L359.187 777.617ZM371.088 777.841C373.095 777.872 375.115 777.9 377.146 777.924L377.182 774.925C375.154 774.9 373.138 774.873 371.134 774.842L371.088 777.841ZM383.276 777.988C385.332 778.005 387.4 778.02 389.479 778.031L389.495 775.031C387.419 775.02 385.355 775.006 383.302 774.988L383.276 777.988ZM395.505 778.054C397.45 778.058 399.406 778.059 401.372 778.058L401.37 775.058C399.407 775.059 397.454 775.058 395.512 775.054L395.505 778.054ZM407.303 778.045C409.29 778.037 411.288 778.027 413.296 778.014L413.276 775.014C411.271 775.027 409.276 775.037 407.291 775.045L407.303 778.045ZM419.353 777.966C421.383 777.947 423.423 777.924 425.474 777.899L425.438 774.9C423.39 774.925 421.352 774.947 419.325 774.966L419.353 777.966ZM431.66 777.815C433.688 777.785 435.726 777.752 437.775 777.716L437.722 774.716C435.676 774.752 433.64 774.785 431.615 774.816L431.66 777.815ZM443.629 777.605C445.589 777.566 447.559 777.523 449.539 777.479L449.471 774.48C447.494 774.524 445.527 774.566 443.568 774.606L443.629 777.605ZM455.505 777.337C457.503 777.287 459.511 777.234 461.528 777.179L461.445 774.18C459.431 774.235 457.426 774.288 455.43 774.338L455.505 777.337ZM467.607 777.005C469.643 776.944 471.688 776.881 473.743 776.815L473.646 773.816C471.594 773.882 469.551 773.945 467.517 774.006L467.607 777.005ZM479.936 776.608C480.973 776.573 482.012 776.536 483.053 776.499L482.947 773.501C481.906 773.538 480.868 773.574 479.833 773.61L479.936 776.608Z" fill="white"/>
<path d="M956.238 141.188C955.79 141.885 955.992 142.813 956.688 143.262C957.385 143.71 958.313 143.508 958.761 142.811L956.238 141.188ZM1234 196.5L1234.86 195.271L1234 196.5ZM1304.5 381.5L1305.87 380.885L1304.5 381.5ZM1563 381.5L1564.13 380.508L1563 381.5ZM1538 567.5L1554.35 573.219L1551.13 556.201L1538 567.5ZM1547.04 567.296C1549.01 566.912 1550.95 566.527 1552.87 566.142L1552.27 563.201C1550.36 563.585 1548.43 563.968 1546.47 564.351L1547.04 567.296ZM1558.64 564.962C1560.61 564.55 1562.56 564.137 1564.47 563.721L1563.84 560.789C1561.93 561.203 1559.99 561.615 1558.02 562.025L1558.64 564.962ZM1570.21 562.446C1572.19 561.998 1574.12 561.545 1576.03 561.088L1575.33 558.171C1573.44 558.625 1571.51 559.075 1569.55 559.521L1570.21 562.446ZM1581.79 559.661C1583.73 559.165 1585.63 558.664 1587.48 558.155L1586.69 555.261C1584.85 555.766 1582.97 556.263 1581.05 556.754L1581.79 559.661ZM1593.25 556.51C1595.2 555.932 1597.09 555.344 1598.94 554.744L1598.01 551.891C1596.19 552.483 1594.32 553.063 1592.4 553.634L1593.25 556.51ZM1604.55 552.826C1606.47 552.135 1608.32 551.427 1610.12 550.701L1608.99 547.92C1607.24 548.631 1605.42 549.325 1603.53 550.003L1604.55 552.826ZM1615.64 548.314C1617.51 547.445 1619.31 546.55 1621.02 545.624L1619.59 542.986C1617.94 543.879 1616.2 544.747 1614.38 545.592L1615.64 548.314ZM1626.21 542.554C1627.96 541.418 1629.6 540.238 1631.12 539.009L1629.24 536.673C1627.8 537.832 1626.25 538.952 1624.57 540.037L1626.21 542.554ZM1635.62 534.892C1637.06 533.378 1638.35 531.794 1639.49 530.133L1637.01 528.44C1635.97 529.958 1634.78 531.417 1633.44 532.823L1635.62 534.892ZM1642.5 524.741C1643.32 522.87 1643.98 520.919 1644.45 518.883L1641.53 518.204C1641.1 520.059 1640.5 521.832 1639.75 523.529L1642.5 524.741ZM1645.32 512.801C1645.43 510.834 1645.4 508.8 1645.23 506.694L1642.24 506.94C1642.4 508.915 1642.43 510.808 1642.32 512.624L1645.32 512.801ZM1644.38 500.684C1644.01 498.782 1643.53 496.827 1642.94 494.813L1640.06 495.649C1640.62 497.585 1641.08 499.455 1641.44 501.263L1644.38 500.684ZM1641.05 489.076C1640.38 487.257 1639.64 485.393 1638.81 483.482L1636.06 484.672C1636.86 486.535 1637.59 488.347 1638.23 490.11L1641.05 489.076ZM1636.34 478.111C1635.5 476.375 1634.59 474.603 1633.63 472.792L1630.98 474.202C1631.93 475.982 1632.82 477.722 1633.64 479.422L1636.34 478.111ZM1630.71 467.514C1629.76 465.863 1628.77 464.182 1627.73 462.469L1625.16 464.029C1626.19 465.72 1627.17 467.379 1628.11 469.007L1630.71 467.514ZM1624.54 457.369C1623.51 455.755 1622.44 454.114 1621.32 452.446L1618.83 454.111C1619.93 455.764 1620.99 457.388 1622.02 458.986L1624.54 457.369ZM1617.96 447.501C1616.87 445.918 1615.74 444.311 1614.57 442.681L1612.13 444.424C1613.29 446.043 1614.41 447.638 1615.5 449.208L1617.96 447.501ZM1611.06 437.835C1609.93 436.286 1608.76 434.716 1607.56 433.125L1605.16 434.928C1606.35 436.51 1607.51 438.071 1608.64 439.61L1611.06 437.835ZM1603.91 428.325C1602.75 426.812 1601.56 425.28 1600.34 423.729L1597.98 425.58C1599.19 427.124 1600.37 428.649 1601.53 430.154L1603.91 428.325ZM1596.62 419.021C1595.41 417.514 1594.19 415.99 1592.94 414.448L1590.61 416.337C1591.85 417.873 1593.07 419.391 1594.27 420.892L1596.62 419.021ZM1589.2 409.866C1587.94 408.34 1586.66 406.797 1585.36 405.238L1583.06 407.159C1584.35 408.713 1585.63 410.251 1586.88 411.772L1589.2 409.866ZM1581.62 400.779C1580.36 399.277 1579.07 397.761 1577.76 396.229L1575.48 398.176C1576.79 399.704 1578.07 401.216 1579.33 402.713L1581.62 400.779ZM1573.9 391.719C1572.64 390.258 1571.36 388.784 1570.07 387.296L1567.81 389.265C1569.1 390.749 1570.37 392.22 1571.63 393.677L1573.9 391.719ZM1566.13 382.792C1565.47 382.034 1564.8 381.273 1564.13 380.508L1561.87 382.492C1562.55 383.255 1563.21 384.014 1563.88 384.77L1566.13 382.792ZM1564.13 380.508C1563.41 379.693 1562.69 378.891 1561.97 378.103L1559.75 380.119C1560.46 380.896 1561.17 381.687 1561.87 382.492L1564.13 380.508ZM1557.71 373.535C1556.29 372.065 1554.88 370.649 1553.48 369.284L1551.38 371.434C1552.76 372.776 1554.15 374.17 1555.55 375.617L1557.71 373.535ZM1548.91 364.997C1547.35 363.587 1545.79 362.241 1544.25 360.957L1542.33 363.264C1543.84 364.521 1545.36 365.84 1546.9 367.223L1548.91 364.997ZM1539.49 357.172C1537.78 355.875 1536.07 354.654 1534.38 353.505L1532.7 355.987C1534.34 357.106 1536 358.297 1537.67 359.563L1539.49 357.172ZM1529.29 350.25C1527.44 349.137 1525.59 348.11 1523.76 347.168L1522.39 349.836C1524.16 350.747 1525.95 351.741 1527.75 352.822L1529.29 350.25ZM1518.25 344.567C1516.27 343.718 1514.31 342.967 1512.36 342.307L1511.4 345.149C1513.27 345.783 1515.16 346.506 1517.07 347.324L1518.25 344.567ZM1506.43 340.573C1504.37 340.064 1502.32 339.657 1500.3 339.346L1499.84 342.312C1501.78 342.609 1503.73 342.998 1505.71 343.485L1506.43 340.573ZM1494.09 338.686C1492 338.562 1489.93 338.538 1487.88 338.606L1487.98 341.604C1489.94 341.539 1491.92 341.563 1493.91 341.681L1494.09 338.686ZM1481.64 339.101C1479.57 339.359 1477.53 339.708 1475.5 340.14L1476.13 343.074C1478.07 342.659 1480.03 342.325 1482.01 342.077L1481.64 339.101ZM1469.47 341.685C1467.49 342.274 1465.53 342.939 1463.59 343.673L1464.65 346.479C1466.53 345.77 1468.42 345.128 1470.32 344.56L1469.47 341.685ZM1457.85 346.057C1455.98 346.906 1454.13 347.813 1452.29 348.774L1453.68 351.433C1455.47 350.497 1457.28 349.614 1459.09 348.79L1457.85 346.057ZM1446.89 351.771C1445.12 352.811 1443.36 353.896 1441.62 355.019L1443.25 357.54C1444.95 356.438 1446.67 355.376 1448.41 354.359L1446.89 351.771ZM1436.51 358.447C1434.83 359.619 1433.17 360.822 1431.51 362.051L1433.3 364.458C1434.93 363.246 1436.58 362.061 1438.23 360.908L1436.51 358.447ZM1426.63 365.784C1425.02 367.047 1423.42 368.33 1421.83 369.626L1423.73 371.949C1425.3 370.664 1426.89 369.394 1428.48 368.145L1426.63 365.784ZM1417.12 373.549C1415.55 374.873 1414 376.206 1412.46 377.541L1414.42 379.809C1415.96 378.48 1417.5 377.155 1419.05 375.841L1417.12 373.549ZM1407.84 381.57C1406.31 382.924 1404.78 384.275 1403.26 385.618L1405.25 387.863C1406.77 386.521 1408.29 385.172 1409.83 383.822L1407.84 381.57ZM1398.68 389.68C1397.14 391.034 1395.62 392.373 1394.12 393.691L1396.09 395.951C1397.6 394.628 1399.13 393.284 1400.66 391.927L1398.68 389.68ZM1389.48 397.693C1387.91 399.031 1386.36 400.337 1384.81 401.605L1386.72 403.924C1388.28 402.642 1389.85 401.323 1391.43 399.976L1389.48 397.693ZM1380.11 405.366C1378.47 406.641 1376.84 407.862 1375.23 409.02L1376.98 411.457C1378.62 410.274 1380.28 409.03 1381.95 407.735L1380.11 405.366ZM1370.23 412.423C1368.49 413.533 1366.78 414.555 1365.08 415.478L1366.51 418.114C1368.28 417.151 1370.06 416.092 1371.84 414.949L1370.23 412.423ZM1359.75 418.063C1357.87 418.858 1356.01 419.51 1354.18 420.005L1354.96 422.901C1356.94 422.366 1358.93 421.668 1360.92 420.827L1359.75 418.063ZM1348.42 421.035C1346.48 421.196 1344.56 421.156 1342.66 420.897L1342.26 423.869C1344.39 424.16 1346.53 424.202 1348.67 424.024L1348.42 421.035ZM1337.11 419.481C1335.39 418.833 1333.68 417.981 1331.96 416.905L1330.37 419.447C1332.24 420.623 1334.13 421.565 1336.04 422.287L1337.11 419.481ZM1327.3 413.415C1325.88 412.177 1324.46 410.774 1323.04 409.194L1320.81 411.2C1322.3 412.862 1323.81 414.352 1325.32 415.675L1327.3 413.415ZM1319.29 404.619C1318.16 403.108 1317.03 401.48 1315.9 399.729L1313.38 401.358C1314.55 403.162 1315.72 404.847 1316.89 406.417L1319.29 404.619ZM1312.73 394.503C1311.79 392.853 1310.84 391.115 1309.9 389.287L1307.24 390.66C1308.2 392.525 1309.16 394.3 1310.12 395.99L1312.73 394.503ZM1307.21 383.812C1306.76 382.857 1306.32 381.882 1305.87 380.885L1303.13 382.115C1303.59 383.127 1304.04 384.117 1304.5 385.087L1307.21 383.812ZM1305.87 380.885C1305.43 379.921 1305.01 378.969 1304.6 378.027L1301.85 379.226C1302.27 380.179 1302.69 381.142 1303.13 382.115L1305.87 380.885ZM1302.27 372.5C1301.51 370.65 1300.8 368.844 1300.14 367.081L1297.33 368.141C1298.01 369.93 1298.73 371.76 1299.49 373.633L1302.27 372.5ZM1298.08 361.38C1297.43 359.485 1296.84 357.643 1296.29 355.853L1293.42 356.725C1293.98 358.551 1294.58 360.425 1295.24 362.351L1298.08 361.38ZM1294.66 350.059C1294.15 348.084 1293.71 346.178 1293.33 344.336L1290.39 344.945C1290.78 346.836 1291.23 348.79 1291.76 350.81L1294.66 350.059ZM1292.3 338.589C1292 336.528 1291.78 334.559 1291.64 332.676L1288.65 332.899C1288.79 334.858 1289.02 336.898 1289.33 339.026L1292.3 338.589ZM1291.45 326.837C1291.47 324.797 1291.59 322.872 1291.8 321.052L1288.82 320.708C1288.6 322.635 1288.47 324.664 1288.45 326.803L1291.45 326.837ZM1292.81 315.36C1293.29 313.392 1293.88 311.566 1294.56 309.864L1291.77 308.75C1291.04 310.584 1290.4 312.546 1289.89 314.651L1292.81 315.36ZM1297.09 304.695C1298.09 302.982 1299.2 301.411 1300.36 299.954L1298.01 298.082C1296.77 299.64 1295.59 301.329 1294.5 303.176L1297.09 304.695ZM1304.24 295.664C1305.68 294.245 1307.15 292.94 1308.61 291.707L1306.67 289.415C1305.18 290.679 1303.64 292.038 1302.13 293.529L1304.24 295.664ZM1313.2 287.94C1314.87 286.58 1316.46 285.245 1317.83 283.883L1315.72 281.75C1314.46 283.004 1312.96 284.262 1311.31 285.617L1313.2 287.94ZM1321.72 278.719C1322.68 276.705 1323.07 274.507 1322.68 272.031L1319.72 272.493C1320.01 274.348 1319.72 275.937 1319.01 277.429L1321.72 278.719ZM1320.47 266.024C1319.58 264.421 1318.42 262.714 1316.98 260.881L1314.62 262.736C1315.99 264.474 1317.05 266.047 1317.85 267.48L1320.47 266.024ZM1313 256.277C1311.73 254.916 1310.32 253.486 1308.76 251.98L1306.68 254.137C1308.21 255.613 1309.58 257.006 1310.81 258.324L1313 256.277ZM1304.28 247.804C1302.88 246.542 1301.39 245.232 1299.8 243.869L1297.84 246.146C1299.42 247.495 1300.89 248.79 1302.27 250.033L1304.28 247.804ZM1295.22 240.022C1293.72 238.786 1292.15 237.51 1290.51 236.192L1288.63 238.534C1290.27 239.843 1291.82 241.11 1293.31 242.336L1295.22 240.022ZM1285.86 232.512C1284.33 231.317 1282.74 230.089 1281.1 228.829L1279.27 231.209C1280.91 232.464 1282.49 233.686 1284.01 234.875L1285.86 232.512ZM1276.28 225.168C1274.76 224.02 1273.2 222.846 1271.58 221.645L1269.79 224.052C1271.4 225.249 1272.96 226.419 1274.48 227.563L1276.28 225.168ZM1266.6 217.963C1265.07 216.838 1263.5 215.69 1261.89 214.519L1260.13 216.945C1261.73 218.113 1263.3 219.258 1264.83 220.381L1266.6 217.963ZM1257.07 211.029C1255.43 209.843 1253.75 208.636 1252.03 207.406L1250.28 209.846C1252 211.074 1253.68 212.279 1255.32 213.462L1257.07 211.029ZM1247.29 204.031C1245.71 202.909 1244.1 201.769 1242.46 200.61L1240.73 203.061C1242.37 204.218 1243.98 205.357 1245.55 206.477L1247.29 204.031ZM1237.44 197.079C1236.59 196.481 1235.73 195.878 1234.86 195.271L1233.14 197.729C1234.01 198.335 1234.87 198.937 1235.72 199.534L1237.44 197.079ZM1234.86 195.271C1234.03 194.691 1233.21 194.113 1232.38 193.537L1230.66 195.994C1231.49 196.57 1232.31 197.149 1233.14 197.729L1234.86 195.271ZM1227.49 190.103C1225.88 188.966 1224.27 187.836 1222.68 186.713L1220.95 189.164C1222.54 190.288 1224.15 191.419 1225.77 192.557L1227.49 190.103ZM1217.95 183.367C1216.3 182.199 1214.66 181.038 1213.04 179.886L1211.3 182.332C1212.93 183.485 1214.56 184.646 1216.22 185.816L1217.95 183.367ZM1208.21 176.452C1206.61 175.316 1205.03 174.188 1203.46 173.069L1201.72 175.51C1203.29 176.63 1204.87 177.759 1206.47 178.896L1208.21 176.452ZM1198.63 169.611C1197 168.445 1195.39 167.29 1193.79 166.143L1192.04 168.581C1193.64 169.728 1195.25 170.884 1196.88 172.05L1198.63 169.611ZM1189.04 162.734C1187.42 161.572 1185.82 160.421 1184.24 159.281L1182.49 161.716C1184.07 162.857 1185.67 164.008 1187.29 165.17L1189.04 162.734ZM1179.4 155.795C1177.8 154.644 1176.22 153.503 1174.65 152.374L1172.9 154.807C1174.47 155.936 1176.05 157.077 1177.64 158.228L1179.4 155.795ZM1169.85 148.91C1168.23 147.735 1166.62 146.573 1165.02 145.424L1163.27 147.857C1164.86 149.006 1166.47 150.168 1168.1 151.342L1169.85 148.91ZM1160.3 142.013C1158.66 140.836 1157.05 139.673 1155.46 138.524L1153.7 140.958C1155.3 142.107 1156.91 143.27 1158.54 144.447L1160.3 142.013ZM1150.65 135.065C1149.05 133.918 1147.48 132.787 1145.92 131.669L1144.17 134.108C1145.73 135.224 1147.3 136.355 1148.9 137.501L1150.65 135.065ZM1141.03 128.172C1139.42 127.023 1137.83 125.89 1136.26 124.774L1134.52 127.22C1136.09 128.334 1137.68 129.465 1139.29 130.613L1141.03 128.172ZM1131.41 121.336C1129.77 120.182 1128.16 119.047 1126.57 117.931L1124.84 120.388C1126.43 121.501 1128.04 122.635 1129.68 123.787L1131.41 121.336ZM1121.74 114.568C1120.08 113.416 1118.45 112.286 1116.83 111.179L1115.14 113.653C1116.74 114.757 1118.38 115.883 1120.03 117.033L1121.74 114.568ZM1112 107.887C1110.32 106.748 1108.66 105.635 1107.02 104.548L1105.36 107.047C1106.99 108.129 1108.64 109.237 1110.32 110.373L1112 107.887ZM1102.13 101.333C1100.43 100.221 1098.75 99.1399 1097.09 98.09L1095.48 100.623C1097.13 101.666 1098.8 102.741 1100.5 103.847L1102.13 101.333ZM1092.1 94.9697C1090.37 93.9062 1088.67 92.879 1087 91.8888L1085.47 94.4702C1087.13 95.4512 1088.81 96.4695 1090.53 97.5249L1092.1 94.9697ZM1081.85 88.9086C1080.1 87.9218 1078.39 86.9784 1076.7 86.079L1075.29 88.7266C1076.95 89.6137 1078.65 90.5451 1080.37 91.5207L1081.85 88.9086ZM1071.34 83.3257C1069.51 82.4223 1067.72 81.575 1065.95 80.7845L1064.72 83.5221C1066.45 84.2962 1068.21 85.1274 1070.01 86.0155L1071.34 83.3257ZM1060.49 78.4814C1058.57 77.7251 1056.69 77.042 1054.84 76.4335L1053.9 79.2834C1055.69 79.8725 1057.52 80.5357 1059.39 81.2725L1060.49 78.4814ZM1049.04 74.7474C1047.04 74.2435 1045.07 73.8353 1043.13 73.5249L1042.66 76.4872C1044.5 76.7828 1046.38 77.1728 1048.31 77.6569L1049.04 74.7474ZM1037.11 72.8729C1035.06 72.7612 1033.03 72.7698 1031.04 72.9012L1031.23 75.8947C1033.11 75.7715 1035.01 75.7631 1036.95 75.8685L1037.11 72.8729ZM1025 73.6908C1023.02 74.0831 1021.06 74.6052 1019.12 75.2582L1020.08 78.1013C1021.9 77.4891 1023.73 77.0007 1025.58 76.6338L1025 73.6908ZM1013.49 77.5451C1011.71 78.3959 1009.94 79.3615 1008.18 80.4423L1009.74 83.0001C1011.42 81.971 1013.1 81.0561 1014.78 80.2529L1013.49 77.5451ZM1003.17 83.8299C1001.6 84.9956 1000.03 86.2544 998.454 87.6067L1000.41 89.8821C1001.93 88.5733 1003.45 87.3599 1004.96 86.2402L1003.17 83.8299ZM994.033 91.6414C992.65 92.9772 991.261 94.3852 989.864 95.8658L992.046 97.9244C993.413 96.4752 994.769 95.1006 996.117 93.7997L994.033 91.6414ZM985.851 100.293C984.567 101.763 983.273 103.294 981.969 104.886L984.29 106.787C985.576 105.218 986.848 103.711 988.11 102.266L985.851 100.293ZM978.309 109.475C977.112 111.013 975.905 112.601 974.686 114.24L977.093 116.03C978.3 114.408 979.494 112.837 980.677 111.317L978.309 109.475ZM971.203 119.01C970.075 120.585 968.935 122.201 967.783 123.859L970.246 125.571C971.391 123.924 972.522 122.32 973.642 120.759L971.203 119.01ZM964.426 128.756C963.343 130.358 962.248 131.995 961.14 133.669L963.642 135.324C964.744 133.658 965.834 132.03 966.911 130.437L964.426 128.756ZM957.891 138.631C957.343 139.475 956.792 140.327 956.238 141.188L958.761 142.811C959.313 141.953 959.862 141.104 960.407 140.264L957.891 138.631Z" fill="white"/>
<path d="M534.045 727.874C531.779 734.414 531.546 741.466 531.618 748.326C533.493 757.532 536.908 766.355 540.616 774.965C542.225 774.402 543.994 774.121 545.679 774.45C546.743 775.347 547.362 776.668 547.846 777.95C549.59 782.539 548.868 787.971 545.954 791.925C545.27 792.866 544.474 793.822 543.375 794.276C541.681 794.105 540.052 793.469 538.626 792.546C533.3 800.328 527.965 808.215 524.062 816.841C522.396 823.467 521.427 830.398 521.829 837.192C523.037 837.257 524.069 836.535 525.103 836.019C532.226 831.536 538.41 825.593 543.544 818.949C545.019 817.05 545.023 814.54 544.909 812.257C544.85 806.002 544.838 799.743 544.995 793.492C545.071 793.443 545.225 793.34 545.301 793.289C547.748 792.151 549.658 789.986 550.576 787.462C552.111 783.387 550.714 778.392 547.242 775.75C547.11 775.63 546.928 775.463 547.005 775.266C548.179 769.707 549.379 764.15 550.703 758.623C551.107 756.683 551.774 754.756 551.665 752.75C551.485 751.124 550.678 749.663 550.006 748.2C547.128 742.523 543.556 737.194 539.419 732.358C537.834 730.671 536.299 728.664 534.046 727.874L534.045 727.874Z" fill="white"/>
<path d="M513.369 768.544C512.45 768.223 512.077 769.505 512.535 770.126C514.755 774.533 518.823 777.77 523.195 779.907C523.996 780.254 524.802 780.684 525.677 780.781C525.541 781.771 525.4 782.764 525.358 783.764C522.656 783.735 520.039 784.719 517.586 785.771C514.688 787.154 511.81 788.936 509.956 791.614C509.43 792.222 510.119 793.457 510.87 792.901C511.488 791.354 512.848 790.289 514.123 789.291C517.425 786.769 521.441 785.441 525.402 784.407C525.393 785.261 525.572 786.097 525.701 786.937C523.634 787.799 522.119 789.561 520.952 791.413C520.662 791.884 520.285 792.516 520.691 793.032C521.008 793.489 521.708 793.18 521.877 792.743C522.804 790.728 524.055 788.798 525.794 787.393C526.465 789.125 527.697 790.964 529.685 791.322C531.737 791.689 533.777 790.284 534.719 788.564C533.074 785.248 533.55 780.972 535.893 778.106C535.32 776.234 533.663 774.401 531.564 774.325C529.533 774.182 527.912 775.719 526.907 777.288C525.42 775.59 524.735 773.245 524.137 771.08C523.798 770.22 522.599 770.763 522.835 771.594C523.457 773.951 524.685 776.283 526.705 777.736C526.376 778.52 526.036 779.301 525.855 780.136C521.344 777.773 516.775 774.894 514.12 770.397C513.703 769.848 513.813 769.041 513.369 768.545L513.369 768.544Z" fill="#1E1E1E"/>
<path d="M522.886 764.017C522.516 763.499 521.247 763.595 521.654 764.373C523.783 765.361 522.767 768.034 522.803 769.843C523.124 769.891 523.448 769.928 523.774 769.962C523.865 768.006 524.907 765.355 522.886 764.018L522.886 764.017Z" fill="#1E1E1E"/>
<path d="M517.748 798.925C517.429 799.859 518.664 799.772 519.17 799.419C521.201 798.426 520.804 795.818 521.162 793.959C520.856 793.805 520.497 793.834 520.168 793.778C519.71 795.561 520.123 798.49 517.748 798.925Z" fill="#1E1E1E"/>
<path d="M540.616 774.966C536.55 776.506 534.143 781.017 534.538 785.253C534.732 788.125 536.245 790.907 538.626 792.547C540.052 793.471 541.682 794.106 543.375 794.277C544.474 793.823 545.27 792.867 545.954 791.926C548.868 787.972 549.59 782.54 547.846 777.951C547.361 776.667 546.742 775.348 545.679 774.451C543.994 774.123 542.226 774.403 540.616 774.966Z" fill="#1E1E1E"/>
<path d="M541.455 736.548C540.044 741.948 538.643 747.389 538.109 752.959C537.575 760.222 539.572 767.39 541.802 774.229C542.248 774.17 542.71 774.137 543.136 773.995C541.585 766.992 540.414 759.857 540.229 752.677C540.08 747.277 540.907 741.855 541.454 736.548L541.455 736.548Z" fill="#1E1E1E"/>
<path d="M531.664 812.25C530.682 818.155 530.789 824.265 531.166 830.179C531.69 824.361 532.303 818.517 533.816 812.858C535.575 806.418 538.219 800.268 540.897 794.168C540.515 793.924 540.06 793.814 539.636 793.663C536.27 799.499 532.991 805.58 531.664 812.25Z" fill="#1E1E1E"/>
<path d="M548.322 749.081C546.611 756.981 543.929 765.014 545.19 773.187C545.275 773.502 545.16 774.02 545.592 774.085C545.869 773.638 545.849 773.071 545.979 772.569C547.263 764.804 547.82 756.913 548.322 749.081Z" fill="#1E1E1E"/>
<path d="M542.794 795.332C541.459 798.711 540.724 802.325 540.619 805.956C540.495 810.456 540.392 814.97 540.558 819.464C541.808 811.232 543.218 802.953 543.352 794.616C542.986 794.617 542.951 795.084 542.794 795.333L542.794 795.332Z" fill="#1E1E1E"/>
<path d="M551.18 769.236C549.36 771.044 548.146 773.374 547.242 775.748C550.713 778.391 552.111 783.386 550.576 787.461C549.657 789.985 547.747 792.15 545.301 793.288C545.737 795.906 546.473 798.539 547.921 800.792C549.642 803.62 551.295 806.5 553.09 809.278C553.409 808.975 554.193 809.151 554.165 808.577C554.3 806.669 554.312 804.754 554.481 802.847C552.492 800.967 550.421 799.171 548.385 797.341C548.171 797.163 547.971 796.969 547.779 796.768C551.525 794.495 554.527 790.765 555.412 786.423C556.339 781.4 553.832 776.393 550.435 772.844C550.612 772.756 550.792 772.668 550.972 772.581C553.396 771.204 555.837 769.853 558.231 768.423C558.607 766.497 558.975 764.519 559.241 762.561C558.911 762.367 558.59 762.156 558.296 761.912C555.857 764.285 553.505 766.751 551.179 769.235L551.18 769.236Z" fill="#1E1E1E"/>
<path d="M555.558 772.085C558.569 775.789 560.802 780.424 560.639 785.285C560.354 790.719 556.835 795.398 552.718 798.686C554.833 799.181 557.051 799.415 559.204 799.153C562.921 795.939 565.59 791.384 566.003 786.438C566.49 781.68 564.787 776.939 562.035 773.104C559.992 772.317 557.742 772.129 555.558 772.086L555.558 772.085Z" fill="#1E1E1E"/>
<path d="M559.401 762.128C559.297 762.372 559.603 762.522 559.736 762.681C562.66 765.102 565.581 767.527 568.535 769.91C569.701 768.8 570.924 767.629 571.894 766.317C567.809 764.708 563.612 763.354 559.4 762.128L559.401 762.128Z" fill="#1E1E1E"/>
<path d="M564.839 803.63C561.287 805.466 557.656 807.202 554.172 809.139C554.23 809.174 554.343 809.245 554.399 809.281C558.713 808.951 563.032 808.598 567.32 807.993C566.649 806.457 565.695 805.065 564.839 803.631L564.839 803.63Z" fill="#1E1E1E"/>
<path d="M567.672 775.462C567.925 776.185 568.403 776.804 568.723 777.499C571.814 783.369 571.053 790.971 566.865 796.114C566.357 796.818 565.67 797.376 565.177 798.089C571.105 796.553 576.223 792.798 580.274 788.299C577.333 782.986 573.051 778.358 567.672 775.462Z" fill="#1E1E1E"/>
<path d="M572.79 767.091C572.267 767.351 571.558 767.464 571.282 768.038C572.957 768.246 574.66 768.27 576.34 768.172C579.585 766.58 583.488 765.726 586.921 767.28C585.908 765.976 584.165 765.453 582.582 765.236C579.223 765.022 575.916 765.96 572.79 767.091Z" fill="#1E1E1E"/>
<path d="M567.13 806.19C567.92 807.495 569.557 808.037 570.81 808.836C574.183 810.64 578.6 812.698 582.202 810.36C578.536 811.062 574.944 809.376 572.124 807.139C570.524 806.6 568.81 806.385 567.13 806.19Z" fill="#1E1E1E"/>
<path d="M1493.95 571.515C1494 574.829 1495.06 578.038 1496.22 581.111C1498.58 584.942 1501.57 588.346 1504.66 591.607C1505.29 591.089 1506.04 590.671 1506.85 590.541C1507.48 590.769 1507.97 591.261 1508.4 591.758C1509.94 593.534 1510.51 596.095 1509.85 598.354C1509.7 598.889 1509.5 599.451 1509.08 599.836C1508.29 600.038 1507.45 600.02 1506.66 599.841C1505.55 604.217 1504.45 608.643 1504.12 613.164C1504.46 616.419 1505.16 619.695 1506.46 622.684C1507.02 622.514 1507.36 622.019 1507.74 621.617C1510.21 618.427 1512.01 614.736 1513.22 610.903C1513.57 609.806 1513.16 608.676 1512.73 607.668C1511.68 604.866 1510.64 602.053 1509.68 599.217C1509.71 599.182 1509.76 599.11 1509.79 599.074C1510.7 598.16 1511.2 596.872 1511.2 595.585C1511.22 593.5 1509.76 591.484 1507.77 590.868C1507.69 590.836 1507.58 590.791 1507.58 590.69C1507.19 587.996 1506.82 585.3 1506.5 582.597C1506.36 581.658 1506.35 580.682 1505.97 579.797C1505.62 579.096 1505.01 578.572 1504.47 578.024C1502.24 575.946 1499.76 574.139 1497.1 572.645C1496.11 572.148 1495.09 571.498 1493.95 571.514L1493.95 571.515Z" fill="white"/>
<path d="M1491.35 593.209C1490.88 593.216 1490.93 593.854 1491.23 594.058C1492.96 595.674 1495.32 596.459 1497.64 596.7C1498.06 596.724 1498.49 596.784 1498.9 596.684C1499 597.151 1499.1 597.621 1499.25 598.078C1498.03 598.51 1497.01 599.384 1496.08 600.261C1495.01 601.36 1494.01 602.635 1493.62 604.146C1493.48 604.505 1493.99 604.947 1494.24 604.573C1494.26 603.776 1494.7 603.073 1495.11 602.414C1496.18 600.736 1497.76 599.477 1499.37 598.359C1499.51 598.745 1499.73 599.092 1499.92 599.448C1499.14 600.176 1498.75 601.218 1498.53 602.243C1498.47 602.503 1498.41 602.849 1498.68 603.014C1498.89 603.167 1499.16 602.913 1499.16 602.689C1499.25 601.63 1499.49 600.556 1500.04 599.638C1500.63 600.306 1501.49 600.93 1502.44 600.763C1503.42 600.59 1504.11 599.622 1504.25 598.693C1502.96 597.474 1502.47 595.472 1503.05 593.798C1502.49 593.05 1501.44 592.499 1500.48 592.811C1499.55 593.081 1499.07 594.039 1498.88 594.911C1497.93 594.392 1497.23 593.45 1496.61 592.575C1496.31 592.245 1495.87 592.686 1496.11 593.021C1496.78 593.978 1497.71 594.825 1498.86 595.145C1498.84 595.552 1498.82 595.959 1498.87 596.364C1496.46 596.045 1493.93 595.503 1491.99 593.919C1491.71 593.741 1491.63 593.36 1491.35 593.21L1491.35 593.209Z" fill="#1E1E1E"/>
<path d="M1494.88 589.605C1494.63 589.434 1494.08 589.686 1494.39 589.969C1495.51 590.062 1495.49 591.431 1495.81 592.239C1495.96 592.208 1496.11 592.171 1496.26 592.133C1495.98 591.238 1496.01 589.874 1494.88 589.606L1494.88 589.605Z" fill="#1E1E1E"/>
<path d="M1498.32 606.149C1498.33 606.622 1498.88 606.379 1499.04 606.137C1499.79 605.356 1499.19 604.248 1499.04 603.354C1498.88 603.335 1498.72 603.407 1498.56 603.436C1498.65 604.313 1499.32 605.562 1498.32 606.149Z" fill="#1E1E1E"/>
<path d="M1504.66 591.608C1503.08 592.97 1502.75 595.395 1503.62 597.235C1504.18 598.494 1505.32 599.496 1506.66 599.841C1507.45 600.021 1508.29 600.038 1509.08 599.836C1509.5 599.451 1509.7 598.89 1509.85 598.354C1510.51 596.096 1509.94 593.534 1508.4 591.759C1507.97 591.261 1507.48 590.77 1506.85 590.541C1506.04 590.672 1505.29 591.089 1504.66 591.608Z" fill="#1E1E1E"/>
<path d="M1498.71 574.194C1498.96 576.855 1499.23 579.532 1499.91 582.125C1500.86 585.479 1502.94 588.373 1505.07 591.081C1505.26 590.981 1505.46 590.89 1505.63 590.756C1503.78 587.862 1502.08 584.847 1500.81 581.649C1499.86 579.245 1499.33 576.671 1498.71 574.194L1498.71 574.194Z" fill="#1E1E1E"/>
<path d="M1506.78 609.848C1507.31 612.665 1508.36 615.395 1509.51 617.992C1508.78 615.289 1508.1 612.56 1507.85 609.767C1507.57 606.581 1507.75 603.38 1507.95 600.195C1507.74 600.149 1507.52 600.174 1507.3 600.176C1506.75 603.355 1506.28 606.63 1506.78 609.848Z" fill="#1E1E1E"/>
<path d="M1503.86 578.698C1504.39 582.533 1504.51 586.587 1506.42 590.054C1506.51 590.182 1506.55 590.434 1506.75 590.391C1506.8 590.145 1506.7 589.893 1506.68 589.646C1505.97 585.943 1504.92 582.303 1503.86 578.698Z" fill="#1E1E1E"/>
<path d="M1508.99 600.407C1508.95 602.146 1509.22 603.892 1509.77 605.542C1510.45 607.586 1511.15 609.632 1511.97 611.626C1511.17 607.718 1510.44 603.763 1509.13 599.992C1508.96 600.053 1509.02 600.269 1508.99 600.407L1508.99 600.407Z" fill="#1E1E1E"/>
<path d="M1508.47 587.29C1507.94 588.403 1507.78 589.651 1507.77 590.868C1509.76 591.484 1511.22 593.5 1511.2 595.585C1511.2 596.871 1510.7 598.159 1509.78 599.074C1510.41 600.179 1511.18 601.242 1512.2 602.017C1513.44 603.005 1514.66 604.027 1515.92 604.981C1516.02 604.792 1516.4 604.742 1516.29 604.489C1516.04 603.608 1515.73 602.745 1515.49 601.86C1514.28 601.342 1513.06 600.876 1511.84 600.389C1511.71 600.344 1511.59 600.289 1511.47 600.231C1512.78 598.591 1513.52 596.419 1513.2 594.321C1512.79 591.91 1510.84 590.072 1508.72 589.035C1508.79 588.967 1508.86 588.897 1508.92 588.829C1509.79 587.81 1510.66 586.8 1511.5 585.763C1511.35 584.835 1511.19 583.885 1510.99 582.96C1510.81 582.928 1510.63 582.886 1510.46 582.824C1509.75 584.293 1509.1 585.79 1508.46 587.29L1508.47 587.29Z" fill="#1E1E1E"/>
<path d="M1510.9 587.85C1512.87 589.019 1514.64 590.736 1515.36 592.948C1516.13 595.439 1515.32 598.122 1514.01 600.279C1515.04 600.153 1516.08 599.893 1517 599.421C1518.15 597.363 1518.59 594.875 1517.97 592.583C1517.4 590.363 1515.85 588.512 1513.98 587.241C1512.94 587.224 1511.89 587.51 1510.9 587.85L1510.9 587.85Z" fill="#1E1E1E"/>
<path d="M1510.99 582.74C1510.98 582.866 1511.15 582.883 1511.23 582.933C1512.95 583.54 1514.66 584.149 1516.38 584.733C1516.72 584.042 1517.08 583.314 1517.3 582.564C1515.2 582.514 1513.09 582.597 1510.99 582.74L1510.99 582.74Z" fill="#1E1E1E"/>
<path d="M1520.27 600.506C1518.98 601.916 1517.63 603.295 1516.39 604.74C1516.42 604.746 1516.48 604.76 1516.51 604.767C1518.4 603.907 1520.28 603.037 1522.11 602.059C1521.55 601.478 1520.9 601.01 1520.27 600.506L1520.27 600.506Z" fill="#1E1E1E"/>
<path d="M1516.91 587.373C1517.14 587.656 1517.46 587.855 1517.72 588.115C1520.07 590.245 1520.98 593.789 1519.95 596.792C1519.83 597.192 1519.62 597.556 1519.51 597.958C1521.93 596.291 1523.61 593.759 1524.69 591.068C1522.49 589.164 1519.8 587.788 1516.91 587.373Z" fill="#1E1E1E"/>
<path d="M1517.83 582.765C1517.64 582.968 1517.34 583.136 1517.31 583.439C1518.09 583.257 1518.86 582.987 1519.6 582.666C1520.8 581.416 1522.41 580.388 1524.21 580.521C1523.54 580.102 1522.67 580.154 1521.93 580.317C1520.38 580.775 1519.05 581.741 1517.83 582.765Z" fill="#1E1E1E"/>
<path d="M1521.73 601.279C1522.3 601.736 1523.12 601.71 1523.82 601.862C1525.63 602.118 1527.96 602.316 1529.19 600.671C1527.66 601.59 1525.77 601.424 1524.13 600.883C1523.32 600.904 1522.51 601.09 1521.73 601.279Z" fill="#1E1E1E"/>
</svg>
