<svg width="86" height="118" viewBox="0 0 86 118" fill="none" xmlns="http://www.w3.org/2000/svg">
<path d="M29.0452 1.87354C26.7786 8.41399 26.5456 15.4659 26.6183 22.3258C28.4925 31.5325 31.9076 40.3548 35.6156 48.965C37.2248 48.4021 38.9941 48.1212 40.6793 48.4496C41.7428 49.347 42.3622 50.6675 42.846 51.9503C44.5895 56.5387 43.8683 61.9707 40.9544 65.9255C40.2699 66.8656 39.4736 67.822 38.375 68.2759C36.6813 68.1049 35.0518 67.4688 33.6264 66.5464C28.3002 74.3281 22.9654 82.2149 19.0624 90.8406C17.3958 97.467 16.4269 104.398 16.829 111.192C18.0368 111.257 19.069 110.535 20.103 110.019C27.2258 105.536 33.4096 99.5931 38.5438 92.9493C40.0189 91.0501 40.0233 88.5403 39.9095 86.257C39.8503 80.0024 39.8382 73.7431 39.9946 67.4925C40.0715 67.4426 40.2245 67.3397 40.3015 67.2888C42.7481 66.1511 44.6578 63.9861 45.5765 61.4623C47.1113 57.3871 45.7139 52.3924 42.2425 49.7496C42.11 49.63 41.9281 49.4635 42.0054 49.2661C43.1787 43.7067 44.3794 38.1504 45.7027 32.6235C46.107 30.6834 46.7735 28.7564 46.6649 26.7498C46.4855 25.1244 45.6784 23.6634 45.0064 22.1995C42.1283 16.5228 38.5558 11.1942 34.4185 6.35754C32.8336 4.67115 31.2989 2.66364 29.0462 1.87365L29.0452 1.87354Z" fill="white"/>
<path d="M8.36939 42.544C7.45043 42.2228 7.07706 43.5051 7.53483 44.1258C9.75516 48.5332 13.8231 51.7704 18.1948 53.9068C18.9959 54.2535 19.8018 54.6839 20.6771 54.7805C20.541 55.7712 20.3998 56.7643 20.3578 57.7644C17.6555 57.7345 15.0386 58.7188 12.5856 59.7706C9.68774 61.1545 6.81044 62.9356 4.95596 65.6145C4.43012 66.2217 5.11939 67.4568 5.87046 66.9012C6.48814 65.3539 7.84836 64.2894 9.12304 63.2907C12.425 60.7685 16.4406 59.4407 20.4019 58.4067C20.3929 59.261 20.5722 60.0974 20.7005 60.9371C18.6342 61.799 17.1188 63.5611 15.9521 65.4131C15.6623 65.884 15.2854 66.5155 15.6912 67.0325C16.0075 67.489 16.7076 67.1802 16.8768 66.7426C17.8036 64.7285 19.0553 62.7977 20.794 61.3929C21.4651 63.125 22.6972 64.9645 24.6854 65.3224C26.737 65.6893 28.777 64.2841 29.7191 62.5636C28.074 59.2482 28.5497 54.972 30.8926 52.1064C30.3202 50.2338 28.6632 48.4009 26.5636 48.3247C24.5329 48.1818 22.9123 49.7194 21.9068 51.2883C20.4202 49.59 19.7345 47.2446 19.1369 45.0801C18.7977 44.2201 17.5991 44.763 17.8354 45.5938C18.4574 47.951 19.6847 50.2829 21.7047 51.7362C21.3765 52.5196 21.0356 53.3006 20.8553 54.136C16.344 51.7733 11.7748 48.8936 9.12036 44.3967C8.70322 43.8478 8.81301 43.0413 8.36928 42.545L8.36939 42.544Z" fill="#1E1E1E"/>
<path d="M17.8864 38.017C17.5164 37.4991 16.2472 37.5946 16.6539 38.373C18.7827 39.3612 17.7673 42.0337 17.8026 43.8431C18.1243 43.8914 18.4483 43.9282 18.7736 43.9621C18.8655 42.0063 19.9073 39.3546 17.8863 38.018L17.8864 38.017Z" fill="#1E1E1E"/>
<path d="M12.7478 72.9251C12.4287 73.859 13.6643 73.7716 14.17 73.4186C16.2012 72.4261 15.8041 69.8176 16.1618 67.9594C15.8557 67.8049 15.4968 67.8336 15.168 67.7775C14.7096 69.5612 15.1228 72.4903 12.7478 72.9251Z" fill="#1E1E1E"/>
<path d="M35.6156 48.966C31.5498 50.5061 29.1434 55.0167 29.5382 59.2534C29.7318 62.1246 31.2455 64.9068 33.6263 66.5474C35.0517 67.4708 36.6822 68.106 38.3749 68.2769C39.4735 67.823 40.2698 66.8666 40.9543 65.9265C43.8683 61.9717 44.5904 56.5398 42.846 51.9513C42.3613 50.6674 41.7418 49.3479 40.6792 48.4506C38.9939 48.1231 37.2257 48.4032 35.6156 48.966Z" fill="#1E1E1E"/>
<path d="M36.4547 10.5476C35.0443 15.9482 33.6432 21.3893 33.109 26.9588C32.5753 34.222 34.5723 41.3902 36.8019 48.2288C37.2484 48.1701 37.7099 48.1369 38.1359 47.9948C36.5855 40.9917 35.4143 33.8572 35.2293 26.677C35.0798 21.2766 35.9068 15.8553 36.4538 10.5475L36.4547 10.5476Z" fill="#1E1E1E"/>
<path d="M26.6639 86.2498C25.6823 92.155 25.7892 98.2654 26.1665 104.179C26.6904 98.3608 27.3034 92.5169 28.8157 86.8584C30.5747 80.4183 33.2185 74.2679 35.8974 68.1679C35.515 67.9238 35.0603 67.8143 34.6359 67.6635C31.2698 73.4986 27.9914 79.58 26.6639 86.2498Z" fill="#1E1E1E"/>
<path d="M43.3215 23.0807C41.6105 30.9812 38.9295 39.0142 40.1903 47.1871C40.2754 47.5023 40.1598 48.0201 40.5917 48.0846C40.8689 47.6381 40.8493 47.0707 40.9789 46.5693C42.2628 38.8038 42.8202 30.9127 43.3215 23.0807Z" fill="#1E1E1E"/>
<path d="M37.7937 69.3324C36.4586 72.711 35.7239 76.3251 35.6186 79.9562C35.4948 84.4564 35.3923 88.9698 35.5585 93.4643C36.8076 85.2318 38.2176 76.9526 38.3524 68.616C37.9856 68.6171 37.9509 69.0844 37.7936 69.3333L37.7937 69.3324Z" fill="#1E1E1E"/>
<path d="M46.18 43.2361C44.3602 45.0437 43.1458 47.3735 42.2416 49.7485C45.7131 52.3913 47.1114 57.3861 45.5757 61.4612C44.657 63.985 42.7472 66.15 40.3007 67.2877C40.7373 69.9056 41.4726 72.5386 42.9206 74.7919C44.6423 77.6198 46.2948 80.4996 48.0903 83.2782C48.4092 82.9749 49.1934 83.1515 49.1646 82.5772C49.2998 80.6687 49.3119 78.7537 49.4806 76.847C47.4919 74.9666 45.4215 73.1712 43.3846 71.3409C43.1714 71.163 42.9708 70.9686 42.7788 70.7683C46.5251 68.4951 49.5272 64.7648 50.4116 60.4228C51.3394 55.3996 48.8323 50.3934 45.4351 46.8441C45.6124 46.7558 45.7915 46.6676 45.9716 46.5806C48.396 45.2039 50.8374 43.8528 53.2309 42.4232C53.6069 40.4968 53.9748 38.5191 54.2414 36.5608C53.9109 36.367 53.5903 36.1564 53.2961 35.9121C50.857 38.285 48.5048 40.7506 46.1792 43.235L46.18 43.2361Z" fill="#1E1E1E"/>
<path d="M50.5584 46.0849C53.5689 49.7885 55.8017 54.424 55.6391 59.2851C55.3538 64.7187 51.8347 69.3976 47.7177 72.6861C49.8326 73.1807 52.0505 73.4146 54.2042 73.1533C57.9214 69.9394 60.5905 65.3835 61.0033 60.4382C61.4896 55.68 59.7867 50.9388 57.0354 47.1043C54.9916 46.3166 52.7418 46.1288 50.5583 46.0859L50.5584 46.0849Z" fill="#1E1E1E"/>
<path d="M54.4011 36.1281C54.2969 36.372 54.6035 36.5216 54.7356 36.6807C57.6596 39.1019 60.5813 41.5267 63.5354 43.9095C64.7014 42.7999 65.9237 41.6291 66.8941 40.3166C62.809 38.7078 58.6116 37.3539 54.4001 36.128L54.4011 36.1281Z" fill="#1E1E1E"/>
<path d="M59.8389 77.6305C56.2867 79.4658 52.6561 81.2024 49.172 83.1393C49.2296 83.1743 49.3426 83.2452 49.3991 83.2811C53.7129 82.9513 58.0322 82.5983 62.3199 81.9934C61.6489 80.4573 60.6945 79.0652 59.8388 77.6315L59.8389 77.6305Z" fill="#1E1E1E"/>
<path d="M62.6721 49.4625C62.9253 50.1853 63.4031 50.8042 63.7229 51.4987C66.8145 57.3692 66.0532 64.9706 61.8654 70.1142C61.3566 70.8183 60.6697 71.3761 60.1768 72.0888C66.1052 70.5533 71.2231 66.7981 75.2744 62.2987C72.3333 56.9863 68.0511 52.3584 62.6721 49.4625Z" fill="#1E1E1E"/>
<path d="M67.7898 41.0905C67.2666 41.3506 66.5583 41.4645 66.282 42.0378C67.9566 42.2463 69.6597 42.2699 71.3404 42.1722C74.5853 40.5801 78.4882 39.7259 81.9212 41.2796C80.9085 39.9761 79.1654 39.4531 77.5819 39.2359C74.223 39.0217 70.9165 39.9596 67.7898 41.0905Z" fill="#1E1E1E"/>
<path d="M62.1304 80.1897C62.9199 81.4953 64.5568 82.0372 65.8096 82.8357C69.1833 84.6402 73.6003 86.6985 77.2021 84.3598C73.536 85.0621 69.9441 83.376 67.1237 81.1385C65.5241 80.5997 63.8105 80.385 62.1304 80.1897Z" fill="#1E1E1E"/>
</svg>
