<svg width="109" height="103" viewBox="0 0 109 103" fill="none" xmlns="http://www.w3.org/2000/svg">
<rect x="1" y="1" width="107" height="101" rx="9" stroke="#FA1313" stroke-width="2"/>
<path d="M35.5 36C35.5 35.1716 36.1716 34.5 37 34.5H38.1165C40.0175 34.5 41.1556 35.778 41.8065 36.966C42.2403 37.7579 42.5542 38.6764 42.7996 39.5079C42.8661 39.5027 42.9335 39.5 43.0016 39.5H67.9962C69.6566 39.5 70.8556 41.0888 70.4004 42.6856L66.7448 55.5038C66.0712 57.8664 63.9124 59.4956 61.4558 59.4956H49.5595C47.0826 59.4956 44.9112 57.8398 44.2557 55.4512L42.7347 49.909L40.2175 41.4116L40.2134 41.3967C39.902 40.261 39.6097 39.2001 39.1755 38.4074C38.7537 37.6376 38.4175 37.5 38.1165 37.5H37C36.1716 37.5 35.5 36.8284 35.5 36ZM48.5 69.5C50.7092 69.5 52.5 67.7092 52.5 65.5C52.5 63.2908 50.7092 61.5 48.5 61.5C46.2909 61.5 44.5 63.2908 44.5 65.5C44.5 67.7092 46.2909 69.5 48.5 69.5ZM62.5 69.5C64.7092 69.5 66.5 67.7092 66.5 65.5C66.5 63.2908 64.7092 61.5 62.5 61.5C60.2908 61.5 58.5 63.2908 58.5 65.5C58.5 67.7092 60.2908 69.5 62.5 69.5Z" fill="#FF0000"/>
</svg>
