<svg width="1752" height="1482" viewBox="0 0 1752 1482" fill="none" xmlns="http://www.w3.org/2000/svg">
<circle cx="939" cy="604" r="63" fill="#FAB413"/>
<circle cx="1002" cy="1283" r="63" fill="#FAB413"/>
<circle cx="359" cy="1419" r="63" fill="#FAB413"/>
<circle cx="222" cy="238" r="63" fill="#FAB413"/>
<circle cx="960" cy="271" r="63" fill="#FAB413"/>
<circle cx="1641" cy="246" r="63" transform="rotate(52.9732 1641 246)" fill="#FAB413"/>
<path d="M1 1470C1 1470 931.457 1398.45 1013 1279C1094.54 1159.55 1233.59 722.657 944.5 606C655.411 489.344 136.05 287.725 215 242C293.95 196.276 672.544 269.496 966 268C1221.8 266.696 1365.41 260.991 1620.5 242C1620.5 242 1719.35 210.208 1743 157C1768 100.768 1717.5 1.5 1717.5 1.5" stroke="#FAB413" stroke-width="4" stroke-dasharray="6 6"/>
<path d="M970.107 568.549C964.848 570.573 960.338 574.131 956.109 577.778C951.365 583.778 947.669 590.535 944.26 597.363C945.455 598.068 946.558 599.022 947.239 600.243C947.239 601.375 946.743 602.454 946.199 603.429C944.26 606.923 940.501 609.326 936.511 609.59C935.567 609.657 934.554 609.664 933.694 609.219C932.911 608.076 932.452 606.728 932.277 605.357C924.639 606.129 916.931 606.951 909.516 609.052C904.518 611.494 899.697 614.531 895.681 618.348C896.275 619.134 897.267 619.396 898.13 619.769C904.659 621.846 911.603 622.573 918.433 622.279C920.389 622.2 921.952 620.884 923.313 619.615C927.173 616.294 931.061 613 935.032 609.815C935.104 609.837 935.248 609.878 935.32 609.899C937.312 610.824 939.662 610.875 941.715 610.122C945.056 608.937 947.429 605.445 947.251 601.898C947.256 601.752 947.264 601.552 947.427 601.496C951.502 599.307 955.589 597.137 959.723 595.058C961.142 594.291 962.691 593.694 963.882 592.573C964.799 591.608 965.284 590.339 965.842 589.152C967.863 584.381 969.302 579.36 970.139 574.247C970.356 572.375 970.799 570.366 970.108 568.55L970.107 568.549Z" fill="white"/>
<path d="M933.948 577.041C933.666 576.3 932.672 576.741 932.526 577.352C930.95 581.048 931.072 585.278 932.038 589.12C932.243 589.8 932.398 590.528 932.798 591.123C932.11 591.558 931.418 591.992 930.774 592.491C929.374 590.794 927.387 589.683 925.445 588.709C923.062 587.633 920.443 586.778 917.803 587.031C917.149 587.022 916.743 588.1 917.483 588.275C918.77 587.847 920.146 588.134 921.437 588.403C924.74 589.133 927.674 590.934 930.397 592.856C929.861 593.299 929.435 593.849 928.98 594.37C927.359 593.537 925.467 593.519 923.702 593.766C923.257 593.833 922.666 593.93 922.558 594.454C922.44 594.89 922.999 595.164 923.36 595.039C925.1 594.558 926.958 594.323 928.745 594.667C928.02 595.994 927.523 597.727 928.344 599.152C929.193 600.621 931.138 601.152 932.703 600.835C933.902 598.071 936.812 596.121 939.825 596.074C940.69 594.735 940.96 592.742 939.905 591.395C938.928 590.057 937.12 589.856 935.616 590.054C935.892 588.238 936.991 586.58 938.024 585.071C938.381 584.409 937.414 583.948 937.021 584.531C935.881 586.156 935.075 588.144 935.231 590.164C934.572 590.371 933.907 590.569 933.292 590.895C932.394 586.848 931.786 582.493 933.19 578.481C933.313 577.933 933.872 577.578 933.948 577.041L933.948 577.041Z" fill="#1E1E1E"/>
<path d="M941.762 580.584C941.89 580.082 941.164 579.343 940.893 580.005C941.396 581.848 939.2 582.619 938.093 583.591C938.232 583.817 938.379 584.038 938.529 584.258C939.794 583.288 941.991 582.544 941.761 580.585L941.762 580.584Z" fill="#1E1E1E"/>
<path d="M917.346 595.717C916.598 596.009 917.301 596.731 917.786 596.861C919.47 597.603 920.884 595.987 922.228 595.233C922.163 594.962 921.957 594.754 921.819 594.52C920.469 595.171 918.864 596.966 917.346 595.717Z" fill="#1E1E1E"/>
<path d="M944.259 597.364C941.166 595.643 937.096 596.514 934.668 598.984C932.983 600.612 932.047 603.015 932.276 605.357C932.45 606.729 932.911 608.077 933.694 609.22C934.553 609.665 935.566 609.658 936.51 609.59C940.501 609.327 944.259 606.924 946.198 603.429C946.742 602.454 947.238 601.376 947.238 600.243C946.557 599.023 945.454 598.07 944.259 597.364Z" fill="#1E1E1E"/>
<path d="M968.601 577.714C964.501 579.672 960.38 581.657 956.634 584.249C951.836 587.731 948.424 592.737 945.341 597.715C945.611 597.962 945.874 598.231 946.187 598.422C949.729 593.78 953.553 589.305 957.923 585.42C961.204 582.492 965.011 580.16 968.601 577.713L968.601 577.714Z" fill="#1E1E1E"/>
<path d="M916.363 611.371C912.174 613.861 908.428 617.135 904.947 620.475C908.842 617.746 912.8 615.059 917.114 613.029C922.044 610.742 927.259 609.158 932.461 607.621C932.412 607.255 932.241 606.915 932.112 606.572C926.714 607.541 921.21 608.695 916.363 611.371Z" fill="#1E1E1E"/>
<path d="M964.409 588.567C958.596 591.65 952.19 594.2 947.768 599.276C947.616 599.494 947.233 599.694 947.42 599.997C947.843 599.935 948.186 599.625 948.566 599.442C954.071 596.163 959.274 592.367 964.409 588.567Z" fill="#1E1E1E"/>
<path d="M932.732 609.412C929.929 610.356 927.295 611.796 924.98 613.637C922.116 615.923 919.254 618.229 916.545 620.692C922.322 617.147 928.214 613.677 933.471 609.384C933.278 609.156 932.969 609.38 932.731 609.413L932.732 609.412Z" fill="#1E1E1E"/>
<path d="M953.371 600.928C951.291 600.745 949.203 601.212 947.251 601.897C947.43 605.444 945.056 608.937 941.715 610.121C939.662 610.874 937.313 610.823 935.32 609.898C933.921 611.545 932.669 613.384 932.027 615.468C931.172 618.024 930.248 620.565 929.462 623.141C929.818 623.18 930.12 623.76 930.462 623.441C931.72 622.523 932.918 621.525 934.193 620.629C934.319 618.404 934.349 616.173 934.418 613.945C934.416 613.719 934.432 613.492 934.456 613.268C937.837 614.405 941.734 614.314 944.9 612.584C948.512 610.524 950.31 606.336 950.735 602.359C950.883 602.422 951.032 602.488 951.18 602.554C953.31 603.339 955.432 604.149 957.578 604.887C958.974 604.11 960.398 603.3 961.756 602.438C961.703 602.131 961.666 601.821 961.664 601.509C958.907 601.238 956.138 601.069 953.371 600.926L953.371 600.928Z" fill="#1E1E1E"/>
<path d="M953.897 605.147C953.174 608.965 951.462 612.788 948.352 615.239C944.822 617.915 940.064 618.182 935.856 617.347C936.659 618.923 937.678 620.426 938.971 621.628C942.922 622.253 947.158 621.522 950.452 619.182C953.667 616.986 955.723 613.437 956.664 609.712C956.081 608.027 955.016 606.529 953.897 605.148L953.897 605.147Z" fill="#1E1E1E"/>
<path d="M962.109 602.31C961.903 602.373 961.971 602.643 961.941 602.808C961.97 605.899 961.996 608.99 962.064 612.079C963.367 612.221 964.737 612.367 966.063 612.282C964.919 608.896 963.558 605.573 962.109 602.309L962.109 602.31Z" fill="#1E1E1E"/>
<path d="M939.144 627.485C936.137 626.238 933.151 624.892 930.116 623.741C930.125 623.795 930.14 623.903 930.147 623.957C932.618 626.467 935.105 628.969 937.733 631.319C938.336 630.095 938.701 628.77 939.144 627.485L939.144 627.485Z" fill="#1E1E1E"/>
<path d="M958.156 614.458C957.84 614.995 957.705 615.617 957.441 616.18C955.412 621.186 950.283 624.704 944.885 624.799C944.179 624.852 943.472 624.718 942.769 624.785C946.838 627.667 951.861 628.88 956.787 629.038C958.548 624.419 959.179 619.325 958.156 614.458Z" fill="#1E1E1E"/>
<path d="M966.052 613.245C965.616 613.056 965.173 612.676 964.671 612.805C965.421 613.956 966.3 615.028 967.243 616.022C969.938 617.205 972.518 619.185 973.354 622.136C973.634 620.822 973.044 619.463 972.347 618.364C970.717 616.161 968.397 614.597 966.052 613.245Z" fill="#1E1E1E"/>
<path d="M938.755 630.254C938.358 631.431 938.88 632.734 939.041 633.932C939.69 636.979 940.728 640.807 944.074 641.82C941.713 639.908 940.876 636.788 940.787 633.859C940.282 632.581 939.516 631.402 938.755 630.254Z" fill="#1E1E1E"/>
<path d="M1049.22 1268.37C1043.68 1267.29 1037.97 1267.91 1032.45 1268.75C1025.25 1271.32 1018.52 1275.08 1012.01 1279.05C1012.65 1280.28 1013.07 1281.68 1013 1283.07C1012.4 1284.03 1011.41 1284.68 1010.43 1285.22C1006.93 1287.15 1002.47 1287.19 998.948 1285.29C998.112 1284.85 997.25 1284.31 996.758 1283.48C996.703 1282.1 997.029 1280.71 997.61 1279.46C990.729 1276.05 983.763 1272.65 976.364 1270.49C970.833 1269.91 965.135 1269.92 959.705 1271.02C959.79 1272 960.491 1272.75 961.024 1273.52C965.452 1278.75 970.948 1283.06 976.89 1286.44C978.59 1287.41 980.613 1287.12 982.44 1286.77C987.475 1286.01 992.519 1285.28 997.575 1284.7C997.624 1284.75 997.724 1284.86 997.774 1284.92C998.971 1286.76 1000.93 1288.05 1003.07 1288.51C1006.53 1289.28 1010.4 1287.58 1012.13 1284.48C1012.21 1284.36 1012.33 1284.2 1012.5 1284.24C1017.11 1284.55 1021.73 1284.88 1026.33 1285.31C1027.94 1285.42 1029.57 1285.74 1031.18 1285.42C1032.47 1285.09 1033.55 1284.27 1034.66 1283.56C1038.9 1280.59 1042.79 1277.1 1046.21 1273.22C1047.39 1271.75 1048.84 1270.28 1049.22 1268.37L1049.22 1268.37Z" fill="white"/>
<path d="M1014.07 1256.36C1014.23 1255.58 1013.15 1255.42 1012.7 1255.86C1009.4 1258.16 1007.26 1261.81 1006.03 1265.57C1005.85 1266.26 1005.59 1266.96 1005.61 1267.67C1004.8 1267.68 1003.98 1267.68 1003.17 1267.76C1002.89 1265.58 1001.8 1263.58 1000.67 1261.72C999.221 1259.54 997.457 1257.43 995.086 1256.24C994.536 1255.89 993.619 1256.58 994.153 1257.12C995.471 1257.45 996.484 1258.42 997.435 1259.33C999.845 1261.71 1001.37 1264.79 1002.66 1267.87C1001.97 1267.96 1001.32 1268.2 1000.65 1268.4C999.724 1266.83 998.13 1265.81 996.504 1265.08C996.092 1264.9 995.54 1264.67 995.169 1265.05C994.837 1265.36 995.166 1265.89 995.538 1265.98C997.268 1266.49 998.967 1267.28 1000.3 1268.52C998.978 1269.26 997.637 1270.47 997.575 1272.11C997.514 1273.8 998.88 1275.29 1000.37 1275.85C1002.86 1274.15 1006.36 1274.04 1008.94 1275.6C1010.38 1274.93 1011.67 1273.38 1011.49 1271.68C1011.37 1270.03 1009.95 1268.9 1008.57 1268.27C1009.77 1266.87 1011.58 1266.05 1013.26 1265.32C1013.91 1264.95 1013.34 1264.05 1012.69 1264.33C1010.87 1265.1 1009.13 1266.36 1008.19 1268.15C1007.52 1267.98 1006.85 1267.79 1006.15 1267.74C1007.54 1263.84 1009.34 1259.83 1012.66 1257.17C1013.06 1256.77 1013.72 1256.77 1014.07 1256.36L1014.07 1256.36Z" fill="#1E1E1E"/>
<path d="M1018.81 1263.51C1019.18 1263.15 1018.96 1262.14 1018.38 1262.56C1017.83 1264.39 1015.56 1263.87 1014.1 1264.11C1014.1 1264.37 1014.11 1264.64 1014.12 1264.9C1015.7 1264.75 1017.96 1265.29 1018.81 1263.51L1018.81 1263.51Z" fill="#1E1E1E"/>
<path d="M990.083 1263.36C989.294 1263.21 989.506 1264.19 989.848 1264.56C990.88 1266.08 992.937 1265.46 994.476 1265.54C994.565 1265.28 994.501 1264.99 994.509 1264.72C993.019 1264.55 990.705 1265.22 990.083 1263.36Z" fill="#1E1E1E"/>
<path d="M1012.01 1279.05C1010.3 1275.95 1006.39 1274.52 1003.02 1275.33C1000.73 1275.81 998.659 1277.35 997.609 1279.46C997.028 1280.71 996.702 1282.1 996.758 1283.48C997.249 1284.31 998.111 1284.85 998.947 1285.29C1002.47 1287.19 1006.93 1287.15 1010.43 1285.22C1011.41 1284.68 1012.4 1284.03 1013 1283.07C1013.07 1281.68 1012.65 1280.28 1012.01 1279.05Z" fill="#1E1E1E"/>
<path d="M1043.07 1275.34C1038.56 1274.82 1034.01 1274.31 1029.46 1274.52C1023.54 1274.92 1017.99 1277.34 1012.74 1279.92C1012.84 1280.28 1012.92 1280.64 1013.08 1280.97C1018.55 1278.92 1024.16 1277.16 1029.93 1276.19C1034.27 1275.46 1038.73 1275.5 1043.07 1275.34L1043.07 1275.34Z" fill="#1E1E1E"/>
<path d="M980.933 1276.09C976.061 1275.98 971.148 1276.76 966.425 1277.74C971.174 1277.5 975.954 1277.33 980.688 1277.9C986.08 1278.58 991.34 1280.01 996.563 1281.47C996.716 1281.14 996.752 1280.76 996.825 1280.4C991.737 1278.35 986.461 1276.4 980.933 1276.09Z" fill="#1E1E1E"/>
<path d="M1033.75 1282.3C1027.19 1281.83 1020.41 1280.58 1013.96 1282.53C1013.72 1282.64 1013.29 1282.61 1013.29 1282.96C1013.68 1283.13 1014.13 1283.05 1014.55 1283.1C1020.96 1283.25 1027.38 1282.8 1033.75 1282.3Z" fill="#1E1E1E"/>
<path d="M995.841 1283.13C992.965 1282.44 989.968 1282.26 987.029 1282.59C983.387 1283.01 979.738 1283.44 976.134 1284.09C982.912 1284.16 989.747 1284.35 996.482 1283.5C996.439 1283.21 996.058 1283.23 995.84 1283.13L995.841 1283.13Z" fill="#1E1E1E"/>
<path d="M1017.83 1286.91C1016.17 1285.65 1014.15 1284.94 1012.13 1284.48C1010.4 1287.58 1006.53 1289.28 1003.07 1288.51C1000.93 1288.05 998.972 1286.76 997.775 1284.92C995.715 1285.57 993.677 1286.46 992.026 1287.89C989.943 1289.6 987.811 1291.26 985.776 1293.03C986.057 1293.25 986.004 1293.9 986.464 1293.81C988.018 1293.7 989.563 1293.49 991.119 1293.41C992.407 1291.59 993.618 1289.72 994.86 1287.87C994.979 1287.68 995.113 1287.49 995.253 1287.32C997.513 1290.08 1000.86 1292.07 1004.46 1292.29C1008.62 1292.46 1012.37 1289.87 1014.84 1286.72C1014.93 1286.86 1015.02 1286.99 1015.11 1287.13C1016.5 1288.92 1017.87 1290.74 1019.29 1292.5C1020.89 1292.58 1022.53 1292.66 1024.13 1292.65C1024.25 1292.36 1024.39 1292.08 1024.55 1291.81C1022.36 1290.12 1020.1 1288.5 1017.83 1286.91L1017.83 1286.91Z" fill="#1E1E1E"/>
<path d="M1016.04 1290.77C1013.4 1293.62 1009.91 1295.95 1005.98 1296.37C1001.57 1296.76 997.392 1294.46 994.271 1291.52C994.114 1293.28 994.179 1295.09 994.636 1296.8C997.651 1299.43 1001.63 1301.06 1005.66 1300.83C1009.55 1300.67 1013.18 1298.76 1015.96 1296.1C1016.36 1294.37 1016.25 1292.53 1016.04 1290.77L1016.04 1290.77Z" fill="#1E1E1E"/>
<path d="M1024.5 1292.73C1024.29 1292.67 1024.21 1292.93 1024.09 1293.06C1022.48 1295.69 1020.86 1298.32 1019.27 1300.98C1020.3 1301.79 1021.38 1302.64 1022.55 1303.27C1023.38 1299.8 1023.99 1296.26 1024.5 1292.73L1024.5 1292.73Z" fill="#1E1E1E"/>
<path d="M991.671 1301.85C989.785 1299.2 987.971 1296.47 986.012 1293.88C985.99 1293.93 985.946 1294.03 985.923 1294.08C986.682 1297.52 987.46 1300.96 988.437 1304.35C989.599 1303.63 990.612 1302.7 991.67 1301.85L991.671 1301.85Z" fill="#1E1E1E"/>
<path d="M1014.7 1300.92C1014.15 1301.2 1013.7 1301.66 1013.18 1302C1008.8 1305.16 1002.59 1305.41 997.961 1302.63C997.335 1302.3 996.807 1301.81 996.176 1301.49C998.091 1306.09 1001.7 1309.79 1005.79 1312.54C1009.74 1309.56 1012.98 1305.58 1014.7 1300.92Z" fill="#1E1E1E"/>
<path d="M1022.03 1304.08C1021.76 1303.69 1021.59 1303.13 1021.1 1302.98C1021.12 1304.35 1021.29 1305.73 1021.57 1307.07C1023.22 1309.5 1024.35 1312.55 1023.49 1315.5C1024.43 1314.53 1024.65 1313.07 1024.65 1311.77C1024.43 1309.03 1023.3 1306.48 1022.03 1304.08Z" fill="#1E1E1E"/>
<path d="M989.87 1303.99C988.908 1304.78 988.658 1306.16 988.157 1307.26C987.088 1310.18 985.934 1313.98 988.23 1316.61C987.246 1313.74 988.194 1310.65 989.675 1308.12C989.927 1306.77 989.904 1305.37 989.87 1303.99Z" fill="#1E1E1E"/>
<path d="M397.942 1453.16C396.355 1447.75 393.179 1442.96 389.89 1438.45C384.299 1433.23 377.867 1428.99 371.341 1425.04C370.54 1426.17 369.5 1427.19 368.227 1427.77C367.098 1427.68 366.064 1427.09 365.137 1426.47C361.814 1424.25 359.726 1420.31 359.79 1416.31C359.8 1415.37 359.876 1414.36 360.39 1413.54C361.594 1412.85 362.975 1412.5 364.356 1412.44C364.211 1404.76 364.023 1397.01 362.537 1389.45C360.512 1384.27 357.88 1379.22 354.404 1374.9C353.573 1375.43 353.229 1376.4 352.787 1377.23C350.182 1383.56 348.89 1390.43 348.624 1397.26C348.543 1399.21 349.725 1400.88 350.879 1402.34C353.873 1406.46 356.838 1410.6 359.686 1414.82C359.659 1414.89 359.606 1415.03 359.579 1415.1C358.494 1417.01 358.251 1419.35 358.834 1421.45C359.741 1424.88 363.027 1427.53 366.577 1427.65C366.721 1427.66 366.921 1427.69 366.963 1427.85C368.811 1432.09 370.639 1436.35 372.372 1440.64C373.021 1442.11 373.489 1443.71 374.509 1444.98C375.396 1445.98 376.621 1446.57 377.758 1447.22C382.348 1449.62 387.233 1451.47 392.261 1452.72C394.109 1453.09 396.075 1453.7 397.941 1453.16L397.942 1453.16Z" fill="white"/>
<path d="M392.44 1416.42C393.201 1416.2 392.843 1415.18 392.246 1414.98C388.692 1413.11 384.466 1412.88 380.558 1413.53C379.863 1413.68 379.125 1413.77 378.499 1414.12C378.122 1413.4 377.746 1412.68 377.302 1411.99C379.107 1410.74 380.378 1408.85 381.507 1406.99C382.775 1404.71 383.841 1402.17 383.806 1399.51C383.867 1398.86 382.827 1398.37 382.591 1399.09C382.913 1400.41 382.514 1401.76 382.14 1403.02C381.142 1406.26 379.107 1409.03 376.969 1411.59C376.571 1411.02 376.057 1410.55 375.576 1410.05C376.539 1408.51 376.711 1406.62 376.61 1404.84C376.58 1404.39 376.531 1403.8 376.018 1403.65C375.593 1403.49 375.274 1404.03 375.369 1404.4C375.706 1406.17 375.788 1408.04 375.298 1409.8C374.035 1408.96 372.349 1408.33 370.862 1409.03C369.329 1409.75 368.64 1411.65 368.828 1413.23C371.485 1414.66 373.189 1417.72 372.989 1420.72C374.253 1421.69 376.218 1422.13 377.646 1421.19C379.06 1420.32 379.408 1418.54 379.334 1417.02C381.121 1417.44 382.684 1418.68 384.103 1419.83C384.734 1420.24 385.272 1419.31 384.723 1418.87C383.197 1417.6 381.282 1416.64 379.256 1416.63C379.104 1415.95 378.961 1415.27 378.686 1414.64C382.793 1414.07 387.183 1413.82 391.067 1415.55C391.603 1415.72 391.911 1416.3 392.44 1416.42L392.44 1416.42Z" fill="#1E1E1E"/>
<path d="M388.268 1423.92C388.758 1424.09 389.554 1423.43 388.917 1423.1C387.039 1423.45 386.45 1421.2 385.572 1420.02C385.336 1420.14 385.103 1420.27 384.872 1420.4C385.735 1421.74 386.296 1423.99 388.268 1423.92L388.268 1423.92Z" fill="#1E1E1E"/>
<path d="M375.186 1398.35C374.956 1397.58 374.178 1398.22 374.01 1398.69C373.132 1400.31 374.627 1401.85 375.268 1403.25C375.544 1403.21 375.768 1403.02 376.013 1402.9C375.474 1401.51 373.817 1399.76 375.186 1398.35Z" fill="#1E1E1E"/>
<path d="M371.341 1425.04C373.309 1422.09 372.774 1417.97 370.511 1415.34C369.026 1413.53 366.709 1412.4 364.355 1412.44C362.974 1412.5 361.593 1412.85 360.39 1413.54C359.876 1414.36 359.799 1415.37 359.79 1416.31C359.726 1420.31 361.813 1424.25 365.137 1426.47C366.065 1427.09 367.099 1427.68 368.227 1427.77C369.499 1427.19 370.539 1426.17 371.341 1425.04Z" fill="#1E1E1E"/>
<path d="M388.932 1450.91C387.316 1446.66 385.675 1442.39 383.398 1438.44C380.321 1433.38 375.611 1429.57 370.902 1426.08C370.634 1426.33 370.344 1426.57 370.128 1426.87C374.464 1430.78 378.611 1434.96 382.125 1439.63C384.775 1443.14 386.788 1447.13 388.932 1450.9L388.932 1450.91Z" fill="#1E1E1E"/>
<path d="M359.665 1396.09C357.526 1391.71 354.569 1387.71 351.526 1383.96C353.927 1388.07 356.281 1392.23 357.951 1396.7C359.826 1401.8 360.979 1407.13 362.084 1412.44C362.453 1412.42 362.806 1412.28 363.159 1412.18C362.634 1406.72 361.935 1401.14 359.665 1396.09Z" fill="#1E1E1E"/>
<path d="M378.459 1445.84C375.861 1439.79 373.844 1433.2 369.148 1428.38C368.943 1428.21 368.775 1427.81 368.458 1427.97C368.485 1428.4 368.766 1428.76 368.917 1429.16C371.734 1434.91 375.092 1440.41 378.459 1445.84Z" fill="#1E1E1E"/>
<path d="M360.277 1412.56C359.566 1409.69 358.346 1406.95 356.7 1404.49C354.657 1401.45 352.593 1398.41 350.36 1395.5C353.42 1401.55 356.396 1407.71 360.244 1413.3C360.487 1413.13 360.289 1412.8 360.276 1412.56L360.277 1412.56Z" fill="#1E1E1E"/>
<path d="M367.043 1433.83C367.396 1431.77 367.1 1429.65 366.578 1427.65C363.028 1427.53 359.741 1424.88 358.835 1421.46C358.252 1419.35 358.495 1417.01 359.58 1415.1C358.054 1413.57 356.323 1412.17 354.298 1411.36C351.821 1410.3 349.365 1409.17 346.862 1408.18C346.794 1408.53 346.19 1408.78 346.481 1409.15C347.293 1410.48 348.189 1411.75 348.978 1413.1C351.185 1413.41 353.406 1413.62 355.621 1413.87C355.846 1413.89 356.071 1413.92 356.293 1413.96C354.883 1417.24 354.654 1421.13 356.119 1424.43C357.876 1428.2 361.903 1430.33 365.833 1431.08C365.757 1431.22 365.68 1431.37 365.601 1431.51C364.644 1433.57 363.664 1435.62 362.752 1437.69C363.412 1439.15 364.103 1440.63 364.851 1442.06C365.162 1442.03 365.474 1442.02 365.784 1442.04C366.281 1439.32 366.676 1436.57 367.044 1433.83L367.043 1433.83Z" fill="#1E1E1E"/>
<path d="M362.794 1434C359.048 1432.97 355.378 1430.95 353.19 1427.65C350.813 1423.91 350.936 1419.15 352.112 1415.02C350.476 1415.7 348.895 1416.59 347.591 1417.78C346.644 1421.67 347.026 1425.95 349.089 1429.42C351.014 1432.81 354.382 1435.15 358.018 1436.39C359.745 1435.94 361.326 1435.01 362.794 1434L362.794 1434Z" fill="#1E1E1E"/>
<path d="M364.949 1442.42C364.903 1442.21 364.629 1442.26 364.467 1442.21C361.384 1441.99 358.302 1441.76 355.217 1441.58C354.968 1442.86 354.711 1444.22 354.688 1445.55C358.156 1444.68 361.579 1443.6 364.95 1442.42L364.949 1442.42Z" fill="#1E1E1E"/>
<path d="M341.74 1417.47C343.228 1414.58 344.815 1411.71 346.21 1408.78C346.156 1408.78 346.047 1408.79 345.993 1408.79C343.288 1411.05 340.591 1413.32 338.034 1415.75C339.204 1416.45 340.495 1416.92 341.739 1417.47L341.74 1417.47Z" fill="#1E1E1E"/>
<path d="M353.167 1437.49C352.657 1437.13 352.048 1436.94 351.508 1436.63C346.685 1434.2 343.6 1428.8 343.947 1423.41C343.951 1422.71 344.143 1422.01 344.133 1421.31C340.928 1425.12 339.308 1430.03 338.748 1434.93C343.207 1437.06 348.232 1438.11 353.167 1437.49Z" fill="#1E1E1E"/>
<path d="M353.728 1445.46C353.952 1445.04 354.368 1444.63 354.28 1444.12C353.072 1444.77 351.931 1445.56 350.863 1446.42C349.463 1449 347.279 1451.41 344.269 1452.01C345.556 1452.39 346.959 1451.91 348.112 1451.31C350.44 1449.87 352.189 1447.68 353.728 1445.46Z" fill="#1E1E1E"/>
<path d="M339.012 1416.86C337.872 1416.36 336.53 1416.78 335.322 1416.84C332.233 1417.24 328.332 1417.96 327.049 1421.21C329.148 1419.01 332.326 1418.44 335.253 1418.59C336.568 1418.19 337.806 1417.52 339.012 1416.86Z" fill="#1E1E1E"/>
<path d="M272.536 243.065C267.934 239.813 262.472 238.035 257.091 236.539C249.467 235.921 241.795 236.596 234.223 237.547C234.299 238.933 234.118 240.38 233.48 241.623C232.538 242.252 231.365 242.437 230.252 242.525C226.27 242.851 222.185 241.057 219.752 237.884C219.171 237.136 218.604 236.296 218.497 235.335C219.014 234.049 219.88 232.919 220.924 232.013C216.044 226.086 211.084 220.13 205.222 215.126C200.417 212.323 195.216 209.997 189.812 208.774C189.488 209.703 189.819 210.674 189.988 211.599C191.883 218.184 195.131 224.365 199.164 229.883C200.316 231.466 202.277 232.038 204.089 232.466C208.993 233.835 213.891 235.242 218.743 236.778C218.765 236.85 218.811 236.993 218.833 237.065C219.169 239.235 220.43 241.219 222.196 242.508C225.035 244.631 229.257 244.668 232.11 242.552C232.233 242.475 232.405 242.37 232.542 242.476C236.623 244.651 240.697 246.847 244.72 249.133C246.145 249.888 247.501 250.846 249.095 251.215C250.407 251.442 251.732 251.142 253.029 250.947C258.119 249.981 263.095 248.393 267.813 246.253C269.491 245.395 271.408 244.649 272.535 243.066L272.536 243.065Z" fill="white"/>
<path d="M245.41 217.693C245.869 217.047 244.951 216.465 244.362 216.683C240.413 217.421 236.961 219.87 234.301 222.805C233.848 223.353 233.329 223.886 233.056 224.549C232.312 224.218 231.567 223.883 230.795 223.624C231.43 221.517 231.252 219.248 230.985 217.092C230.558 214.513 229.816 211.859 228.141 209.803C227.785 209.254 226.664 209.514 226.928 210.227C227.998 211.06 228.523 212.365 229.015 213.588C230.241 216.74 230.37 220.181 230.282 223.513C229.616 223.313 228.922 223.263 228.236 223.174C228.03 221.363 226.995 219.779 225.81 218.448C225.508 218.114 225.099 217.677 224.603 217.877C224.174 218.021 224.257 218.639 224.561 218.87C225.927 220.05 227.153 221.466 227.858 223.144C226.352 223.277 224.635 223.824 223.905 225.298C223.154 226.819 223.791 228.732 224.923 229.858C227.888 229.322 231.125 230.662 232.835 233.142C234.429 233.119 236.238 232.238 236.772 230.613C237.344 229.057 236.508 227.442 235.508 226.301C237.173 225.522 239.162 225.517 240.99 225.539C241.739 225.469 241.586 224.409 240.883 224.405C238.899 224.358 236.798 224.79 235.204 226.041C234.666 225.607 234.132 225.164 233.52 224.834C236.388 221.841 239.674 218.919 243.791 217.861C244.315 217.659 244.921 217.927 245.409 217.693L245.41 217.693Z" fill="#1E1E1E"/>
<path d="M246.797 226.16C247.285 225.988 247.498 224.973 246.797 225.115C245.543 226.556 243.682 225.158 242.259 224.776C242.149 225.016 242.047 225.261 241.947 225.508C243.455 226.023 245.293 227.437 246.796 226.159L246.797 226.16Z" fill="#1E1E1E"/>
<path d="M220.661 214.242C220.003 213.781 219.792 214.767 219.953 215.242C220.27 217.055 222.399 217.335 223.772 218.035C223.962 217.831 224.02 217.544 224.139 217.299C222.848 216.537 220.464 216.197 220.661 214.242Z" fill="#1E1E1E"/>
<path d="M234.222 237.547C233.938 234.019 230.955 231.116 227.553 230.466C225.263 229.968 222.745 230.522 220.923 232.012C219.879 232.918 219.013 234.049 218.496 235.334C218.603 236.296 219.17 237.135 219.751 237.883C222.184 241.057 226.268 242.851 230.251 242.525C231.365 242.437 232.537 242.251 233.479 241.623C234.117 240.379 234.298 238.933 234.222 237.547Z" fill="#1E1E1E"/>
<path d="M264.076 246.897C260.171 244.572 256.234 242.245 251.999 240.567C246.44 238.506 240.382 238.445 234.53 238.641C234.475 239.004 234.396 239.372 234.411 239.737C240.238 240.11 246.083 240.808 251.74 242.289C255.997 243.394 260.049 245.267 264.076 246.896L264.076 246.897Z" fill="#1E1E1E"/>
<path d="M207.092 222.109C202.696 220.005 197.893 218.706 193.184 217.663C197.615 219.389 202.046 221.191 206.129 223.654C210.767 226.487 214.978 229.946 219.142 233.422C219.42 233.178 219.608 232.847 219.822 232.549C216.021 228.596 212.007 224.656 207.092 222.109Z" fill="#1E1E1E"/>
<path d="M252.721 249.43C246.93 246.305 241.255 242.39 234.578 241.527C234.312 241.522 233.933 241.314 233.785 241.637C234.072 241.955 234.52 242.068 234.883 242.283C240.665 245.044 246.709 247.266 252.721 249.43Z" fill="#1E1E1E"/>
<path d="M217.803 234.641C215.463 232.833 212.803 231.44 209.987 230.536C206.496 229.421 202.989 228.319 199.437 227.432C205.592 230.272 211.748 233.248 218.236 235.24C218.319 234.953 217.961 234.82 217.802 234.641L217.803 234.641Z" fill="#1E1E1E"/>
<path d="M236.312 247.105C235.31 245.273 233.763 243.796 232.111 242.551C229.258 244.668 225.036 244.631 222.197 242.508C220.431 241.218 219.17 239.235 218.834 237.064C216.688 236.813 214.463 236.792 212.373 237.415C209.772 238.121 207.146 238.762 204.567 239.537C204.732 239.855 204.416 240.429 204.872 240.536C206.334 241.074 207.828 241.516 209.281 242.08C211.202 240.95 213.074 239.737 214.967 238.559C215.154 238.432 215.351 238.319 215.552 238.215C216.481 241.659 218.719 244.85 221.915 246.525C225.633 248.387 230.115 247.559 233.659 245.706C233.688 245.864 233.717 246.024 233.744 246.185C234.272 248.392 234.776 250.607 235.352 252.803C236.774 253.533 238.237 254.268 239.708 254.919C239.934 254.705 240.172 254.502 240.429 254.327C239.126 251.883 237.73 249.485 236.313 247.104L236.312 247.105Z" fill="#1E1E1E"/>
<path d="M233.094 249.884C229.516 251.4 225.386 252.097 221.621 250.87C217.437 249.417 214.574 245.607 212.934 241.643C212.069 243.185 211.384 244.866 211.101 246.61C212.773 250.244 215.732 253.362 219.506 254.804C223.116 256.261 227.209 256.002 230.831 254.718C231.909 253.298 232.565 251.582 233.093 249.884L233.094 249.884Z" fill="#1E1E1E"/>
<path d="M240.01 255.142C239.843 255.005 239.657 255.211 239.502 255.279C236.947 257.017 234.39 258.753 231.858 260.524C232.462 261.687 233.101 262.908 233.908 263.964C236.09 261.133 238.099 258.157 240.011 255.141L240.01 255.142Z" fill="#1E1E1E"/>
<path d="M206.324 250.003C205.693 246.809 205.157 243.577 204.431 240.414C204.39 240.451 204.309 240.524 204.268 240.56C203.55 244.008 202.848 247.466 202.351 250.955C203.704 250.778 205.009 250.347 206.324 250.002L206.324 250.003Z" fill="#1E1E1E"/>
<path d="M227.711 258.593C227.088 258.627 226.496 258.861 225.881 258.954C220.59 260.043 214.818 257.727 211.744 253.288C211.308 252.731 211.028 252.068 210.582 251.521C210.441 256.505 212.219 261.357 214.821 265.543C219.641 264.445 224.229 262.144 227.711 258.593Z" fill="#1E1E1E"/>
<path d="M233.1 264.489C233.015 264.021 233.086 263.442 232.7 263.096C232.158 264.358 231.754 265.685 231.45 267.021C231.961 269.919 231.746 273.164 229.754 275.498C231.003 275.001 231.806 273.756 232.334 272.567C233.262 269.988 233.277 267.19 233.1 264.489Z" fill="#1E1E1E"/>
<path d="M203.805 251.215C202.605 251.537 201.811 252.695 200.903 253.494C198.728 255.724 196.119 258.712 197.133 262.058C197.413 259.032 199.545 256.605 201.933 254.905C202.716 253.776 203.272 252.485 203.805 251.215Z" fill="#1E1E1E"/>
<path d="M982.177 317.532C983.051 311.965 982.222 306.282 981.176 300.795C978.348 293.688 974.342 287.111 970.131 280.746C968.922 281.429 967.545 281.909 966.147 281.888C965.166 281.323 964.48 280.354 963.907 279.396C961.85 275.97 961.645 271.514 963.41 267.925C963.824 267.074 964.324 266.193 965.139 265.671C966.52 265.564 967.918 265.839 969.193 266.373C972.34 259.371 975.478 252.283 977.364 244.81C977.745 239.26 977.523 233.567 976.222 228.181C975.245 228.303 974.522 229.03 973.768 229.592C968.706 234.21 964.607 239.863 961.45 245.925C960.542 247.66 960.9 249.671 961.32 251.484C962.268 256.487 963.179 261.501 963.954 266.532C963.899 266.583 963.792 266.687 963.737 266.739C961.941 268.003 960.722 270.013 960.35 272.167C959.707 275.654 961.546 279.454 964.708 281.072C964.831 281.149 965.001 281.256 964.967 281.425C964.828 286.049 964.666 290.674 964.401 295.293C964.357 296.905 964.1 298.545 964.476 300.138C964.854 301.414 965.711 302.468 966.461 303.545C969.584 307.679 973.214 311.434 977.225 314.713C978.738 315.836 980.257 317.224 982.176 317.532L982.177 317.532Z" fill="white"/>
<path d="M992.887 281.967C993.669 282.092 993.784 281.011 993.327 280.58C990.914 277.368 987.188 275.36 983.378 274.278C982.686 274.115 981.978 273.887 981.263 273.935C981.229 273.122 981.199 272.306 981.089 271.498C983.258 271.133 985.214 269.968 987.028 268.772C989.15 267.246 991.199 265.404 992.299 262.991C992.633 262.428 991.903 261.538 991.381 262.091C991.109 263.42 990.173 264.469 989.295 265.453C987.013 267.949 983.986 269.591 980.961 270.99C980.845 270.304 980.581 269.66 980.357 269.006C981.889 268.017 982.85 266.387 983.518 264.735C983.682 264.316 983.893 263.756 983.493 263.4C983.174 263.08 982.658 263.428 982.585 263.803C982.133 265.551 981.408 267.278 980.217 268.654C979.43 267.363 978.178 266.066 976.533 266.066C974.836 266.067 973.404 267.487 972.897 269.001C974.693 271.421 974.927 274.915 973.463 277.549C974.191 278.967 975.783 280.197 977.476 279.956C979.124 279.778 980.201 278.312 980.78 276.91C982.216 278.057 983.103 279.838 983.894 281.486C984.289 282.126 985.172 281.519 984.863 280.887C984.025 279.088 982.706 277.396 980.878 276.522C981.028 275.848 981.189 275.173 981.213 274.477C985.168 275.721 989.244 277.37 992.018 280.591C992.431 280.971 992.459 281.633 992.887 281.967L992.887 281.967Z" fill="#1E1E1E"/>
<path d="M985.913 286.965C986.284 287.327 987.287 287.067 986.849 286.502C985.001 286.017 985.43 283.73 985.141 282.285C984.876 282.292 984.611 282.31 984.346 282.329C984.554 283.91 984.101 286.184 985.913 286.964L985.913 286.965Z" fill="#1E1E1E"/>
<path d="M985.003 258.255C985.124 257.461 984.147 257.709 983.793 258.065C982.308 259.152 983.002 261.185 982.983 262.726C983.25 262.805 983.534 262.731 983.805 262.728C983.916 261.233 983.163 258.946 985.003 258.255Z" fill="#1E1E1E"/>
<path d="M970.13 280.745C973.166 278.926 974.445 274.965 973.518 271.627C972.95 269.354 971.336 267.343 969.192 266.372C967.917 265.837 966.519 265.563 965.139 265.67C964.324 266.191 963.823 267.072 963.41 267.924C961.645 271.513 961.849 275.969 963.907 279.394C964.48 280.353 965.167 281.321 966.147 281.887C967.545 281.907 968.921 281.428 970.13 280.745Z" fill="#1E1E1E"/>
<path d="M974.99 311.649C975.343 307.119 975.682 302.557 975.308 298.018C974.689 292.121 972.057 286.665 969.286 281.507C968.937 281.618 968.572 281.711 968.251 281.886C970.501 287.274 972.467 292.822 973.649 298.549C974.547 302.854 974.665 307.317 974.991 311.649L974.99 311.649Z" fill="#1E1E1E"/>
<path d="M971.934 249.583C971.87 244.71 970.905 239.829 969.751 235.145C970.169 239.882 970.519 244.653 970.122 249.405C969.64 254.818 968.408 260.127 967.139 265.4C967.481 265.541 967.861 265.563 968.223 265.623C970.08 260.463 971.831 255.118 971.934 249.583Z" fill="#1E1E1E"/>
<path d="M967.683 302.596C967.917 296.019 968.908 289.196 966.721 282.829C966.607 282.589 966.625 282.157 966.27 282.168C966.112 282.566 966.21 283.017 966.178 283.438C966.268 289.845 966.957 296.248 967.683 302.596Z" fill="#1E1E1E"/>
<path d="M965.452 264.74C966.036 261.841 966.104 258.839 965.665 255.915C965.116 252.291 964.549 248.66 963.768 245.083C963.953 251.859 964.015 258.696 965.108 265.395C965.402 265.341 965.362 264.962 965.452 264.739L965.452 264.74Z" fill="#1E1E1E"/>
<path d="M962.491 286.858C963.689 285.147 964.326 283.106 964.709 281.072C961.546 279.455 959.707 275.654 960.35 272.168C960.723 270.013 961.942 268.003 963.738 266.74C963.011 264.705 962.043 262.701 960.558 261.104C958.771 259.086 957.033 257.017 955.194 255.049C954.982 255.338 954.328 255.309 954.434 255.765C954.6 257.314 954.867 258.85 955.006 260.402C956.87 261.622 958.788 262.763 960.683 263.936C960.88 264.048 961.069 264.175 961.251 264.308C958.577 266.669 956.709 270.09 956.625 273.696C956.605 277.855 959.335 281.505 962.568 283.859C962.439 283.956 962.308 284.052 962.176 284.148C960.432 285.6 958.67 287.034 956.958 288.524C956.934 290.122 956.924 291.76 956.993 293.367C957.285 293.475 957.573 293.597 957.844 293.751C959.456 291.498 960.986 289.184 962.492 286.858L962.491 286.858Z" fill="#1E1E1E"/>
<path d="M958.572 285.206C955.627 282.672 953.17 279.279 952.6 275.36C952.046 270.966 954.192 266.71 957.018 263.482C955.252 263.39 953.441 263.522 951.753 264.042C949.237 267.152 947.755 271.187 948.136 275.209C948.432 279.092 950.479 282.645 953.236 285.321C954.987 285.658 956.816 285.485 958.572 285.205L958.572 285.206Z" fill="#1E1E1E"/>
<path d="M956.927 293.737C956.975 293.527 956.708 293.451 956.579 293.342C953.888 291.823 951.198 290.301 948.488 288.817C947.713 289.875 946.902 290.989 946.314 292.18C949.819 292.881 953.377 293.361 956.928 293.737L956.927 293.737Z" fill="#1E1E1E"/>
<path d="M946.593 261.266C949.175 259.284 951.834 257.37 954.347 255.316C954.296 255.296 954.195 255.256 954.145 255.235C950.736 256.121 947.326 257.025 943.977 258.128C944.736 259.262 945.701 260.24 946.593 261.265L946.593 261.266Z" fill="#1E1E1E"/>
<path d="M948.38 284.244C948.073 283.701 947.601 283.274 947.244 282.763C943.922 278.505 943.437 272.305 946.052 267.58C946.358 266.943 946.828 266.397 947.121 265.755C942.592 267.839 939.032 271.585 936.433 275.773C939.555 279.606 943.653 282.698 948.38 284.244Z" fill="#1E1E1E"/>
<path d="M945.485 291.689C945.866 291.405 946.418 291.212 946.556 290.712C945.185 290.787 943.817 291.013 942.484 291.333C940.113 293.076 937.109 294.323 934.135 293.572C935.134 294.471 936.606 294.639 937.906 294.585C940.628 294.273 943.142 293.045 945.485 291.689Z" fill="#1E1E1E"/>
<path d="M944.389 259.545C943.568 258.613 942.179 258.414 941.06 257.955C938.097 256.995 934.261 255.982 931.712 258.374C934.548 257.284 937.669 258.118 940.251 259.504C941.611 259.706 943.015 259.631 944.389 259.545Z" fill="#1E1E1E"/>
<path d="M1690.98 256.53C1686.78 252.77 1681.56 250.374 1676.39 248.269C1668.88 246.777 1661.19 246.564 1653.55 246.636C1653.47 248.022 1653.12 249.438 1652.35 250.6C1651.34 251.116 1650.15 251.165 1649.04 251.125C1645.04 250.989 1641.19 248.737 1639.14 245.304C1638.65 244.495 1638.18 243.596 1638.19 242.628C1638.85 241.41 1639.84 240.387 1640.98 239.608C1636.82 233.159 1632.58 226.671 1627.33 221.025C1622.88 217.687 1617.98 214.777 1612.75 212.94C1612.32 213.826 1612.54 214.829 1612.6 215.767C1613.73 222.526 1616.24 229.04 1619.61 234.986C1620.57 236.692 1622.46 237.485 1624.21 238.119C1628.92 240.043 1633.62 242.005 1638.27 244.091C1638.28 244.164 1638.31 244.311 1638.32 244.385C1638.41 246.58 1639.43 248.695 1641.04 250.18C1643.61 252.615 1647.8 253.139 1650.88 251.364C1651.01 251.303 1651.19 251.219 1651.32 251.339C1655.12 253.97 1658.91 256.621 1662.65 259.354C1663.98 260.269 1665.21 261.376 1666.75 261.926C1668.03 262.303 1669.38 262.157 1670.69 262.114C1675.86 261.74 1680.99 260.736 1685.92 259.153C1687.68 258.494 1689.67 257.974 1690.98 256.531L1690.98 256.53Z" fill="white"/>
<path d="M1666.95 228.203C1667.48 227.614 1666.64 226.93 1666.03 227.079C1662.02 227.358 1658.31 229.393 1655.33 232.002C1654.82 232.494 1654.24 232.964 1653.89 233.59C1653.19 233.176 1652.49 232.758 1651.75 232.411C1652.63 230.392 1652.71 228.117 1652.69 225.945C1652.57 223.333 1652.14 220.613 1650.71 218.377C1650.42 217.791 1649.27 217.919 1649.45 218.658C1650.42 219.609 1650.79 220.966 1651.14 222.237C1651.99 225.51 1651.73 228.943 1651.26 232.242C1650.62 231.966 1649.93 231.838 1649.26 231.67C1649.27 229.847 1648.42 228.155 1647.4 226.696C1647.14 226.33 1646.78 225.848 1646.26 225.99C1645.82 226.084 1645.83 226.706 1646.11 226.971C1647.33 228.301 1648.38 229.849 1648.89 231.596C1647.38 231.555 1645.61 231.901 1644.72 233.281C1643.79 234.705 1644.21 236.679 1645.2 237.928C1648.21 237.737 1651.27 239.441 1652.68 242.102C1654.27 242.262 1656.17 241.595 1656.89 240.042C1657.63 238.563 1656.99 236.862 1656.13 235.613C1657.87 235.032 1659.85 235.256 1661.66 235.488C1662.41 235.504 1662.38 234.434 1661.68 234.35C1659.72 234.074 1657.58 234.262 1655.85 235.32C1655.37 234.827 1654.89 234.326 1654.32 233.927C1657.51 231.284 1661.11 228.761 1665.33 228.184C1665.87 228.043 1666.44 228.38 1666.95 228.203L1666.95 228.203Z" fill="#1E1E1E"/>
<path d="M1667.36 236.773C1667.86 236.659 1668.19 235.676 1667.48 235.736C1666.06 237.023 1664.38 235.419 1663.01 234.876C1662.87 235.102 1662.74 235.334 1662.61 235.568C1664.05 236.252 1665.72 237.869 1667.36 236.773L1667.36 236.773Z" fill="#1E1E1E"/>
<path d="M1642.77 221.925C1642.17 221.391 1641.84 222.347 1641.95 222.837C1642.05 224.675 1644.14 225.198 1645.42 226.051C1645.63 225.87 1645.72 225.592 1645.87 225.363C1644.67 224.457 1642.35 223.845 1642.77 221.925Z" fill="#1E1E1E"/>
<path d="M1653.55 246.636C1653.68 243.099 1651.05 239.872 1647.74 238.835C1645.53 238.076 1642.96 238.336 1640.98 239.607C1639.84 240.387 1638.85 241.411 1638.19 242.628C1638.18 243.595 1638.65 244.494 1639.14 245.304C1641.19 248.737 1645.04 250.989 1649.04 251.124C1650.15 251.165 1651.34 251.115 1652.35 250.6C1653.12 249.438 1653.47 248.022 1653.55 246.636Z" fill="#1E1E1E"/>
<path d="M1682.13 259.362C1678.52 256.603 1674.88 253.838 1670.86 251.684C1665.58 248.996 1659.57 248.238 1653.73 247.759C1653.64 248.113 1653.52 248.47 1653.49 248.834C1659.23 249.875 1664.96 251.242 1670.41 253.364C1674.51 254.952 1678.32 257.28 1682.13 259.362L1682.13 259.362Z" fill="#1E1E1E"/>
<path d="M1628.38 228.177C1624.26 225.581 1619.64 223.737 1615.08 222.158C1619.28 224.383 1623.48 226.684 1627.25 229.601C1631.53 232.949 1635.31 236.87 1639.05 240.802C1639.35 240.592 1639.58 240.285 1639.83 240.014C1636.5 235.649 1632.97 231.273 1628.38 228.177Z" fill="#1E1E1E"/>
<path d="M1670.56 260.571C1665.17 256.799 1659.98 252.257 1653.45 250.631C1653.19 250.595 1652.83 250.346 1652.65 250.65C1652.9 250.998 1653.33 251.162 1653.66 251.417C1659.09 254.826 1664.84 257.729 1670.56 260.571Z" fill="#1E1E1E"/>
<path d="M1637.58 241.859C1635.46 239.793 1632.98 238.103 1630.29 236.881C1626.95 235.371 1623.59 233.873 1620.16 232.583C1625.95 236.113 1631.72 239.778 1637.94 242.504C1638.05 242.228 1637.71 242.055 1637.58 241.859L1637.58 241.859Z" fill="#1E1E1E"/>
<path d="M1654.53 256.371C1653.75 254.436 1652.38 252.791 1650.88 251.364C1647.8 253.138 1643.61 252.615 1641.04 250.179C1639.43 248.695 1638.41 246.58 1638.32 244.385C1636.22 243.888 1634.01 243.611 1631.87 243.989C1629.2 244.391 1626.52 244.725 1623.87 245.198C1623.99 245.533 1623.61 246.066 1624.05 246.225C1625.44 246.928 1626.88 247.54 1628.26 248.267C1630.29 247.366 1632.29 246.377 1634.31 245.424C1634.51 245.32 1634.72 245.23 1634.93 245.149C1635.46 248.678 1637.31 252.106 1640.29 254.137C1643.77 256.415 1648.32 256.109 1652.06 254.676C1652.07 254.837 1652.08 254.999 1652.08 255.162C1652.35 257.415 1652.6 259.674 1652.92 261.921C1654.25 262.81 1655.62 263.708 1657 264.525C1657.25 264.338 1657.51 264.164 1657.79 264.02C1656.77 261.441 1655.66 258.899 1654.53 256.371L1654.53 256.371Z" fill="#1E1E1E"/>
<path d="M1651.01 258.762C1647.28 259.856 1643.1 260.072 1639.5 258.42C1635.51 256.495 1633.11 252.38 1631.94 248.254C1630.9 249.685 1630.02 251.277 1629.54 252.976C1630.78 256.779 1633.36 260.217 1636.95 262.084C1640.37 263.947 1644.46 264.161 1648.21 263.303C1649.44 262.017 1650.29 260.387 1651.01 258.761L1651.01 258.762Z" fill="#1E1E1E"/>
<path d="M1657.28 264.781C1657.13 264.626 1656.92 264.809 1656.76 264.858C1654.02 266.291 1651.28 267.721 1648.56 269.189C1649.03 270.414 1649.52 271.7 1650.2 272.842C1652.69 270.281 1655.03 267.556 1657.28 264.781L1657.28 264.781Z" fill="#1E1E1E"/>
<path d="M1624.41 255.797C1624.15 252.552 1623.99 249.279 1623.63 246.054C1623.59 246.086 1623.5 246.149 1623.45 246.18C1622.34 249.522 1621.25 252.876 1620.35 256.285C1621.72 256.265 1623.06 255.987 1624.41 255.796L1624.41 255.797Z" fill="#1E1E1E"/>
<path d="M1644.66 266.792C1644.04 266.755 1643.42 266.919 1642.8 266.94C1637.42 267.413 1631.96 264.448 1629.41 259.685C1629.04 259.081 1628.84 258.39 1628.46 257.795C1627.75 262.729 1628.96 267.754 1631.06 272.212C1635.97 271.677 1640.79 269.919 1644.66 266.792Z" fill="#1E1E1E"/>
<path d="M1649.34 273.27C1649.31 272.796 1649.44 272.228 1649.1 271.84C1648.42 273.032 1647.86 274.303 1647.41 275.595C1647.58 278.533 1646.99 281.732 1644.74 283.82C1646.04 283.47 1646.98 282.326 1647.65 281.206C1648.86 278.751 1649.2 275.974 1649.34 273.27Z" fill="#1E1E1E"/>
<path d="M1621.76 256.711C1620.54 256.893 1619.61 257.951 1618.62 258.64C1616.2 260.605 1613.27 263.273 1613.89 266.713C1614.52 263.74 1616.91 261.574 1619.48 260.161C1620.39 259.13 1621.09 257.911 1621.76 256.711Z" fill="#1E1E1E"/>
</svg>
