<svg width="48" height="48" viewBox="0 0 48 48" fill="none" xmlns="http://www.w3.org/2000/svg">
<path d="M0 2.05714C0 0.921024 0.921084 0 2.05728 0H3.58861C6.19578 0 7.75681 1.75266 8.64948 3.38191C9.24447 4.46795 9.67491 5.72758 10.0116 6.86798C10.1028 6.86082 10.1952 6.85714 10.2886 6.85714H44.5691C46.8464 6.85714 48.4909 9.03612 47.8665 11.226L42.8528 28.8052C41.929 32.0453 38.9681 34.2797 35.5989 34.2797H19.2829C15.8857 34.2797 12.9076 32.0089 12.0085 28.7331L9.9225 21.1323L6.47011 9.47871L6.46451 9.4583C6.03742 7.90083 5.63658 6.44585 5.04096 5.35872C4.46254 4.30299 4.00146 4.11429 3.58861 4.11429H2.05728C0.921084 4.11429 0 3.19326 0 2.05714ZM17.8297 48C20.8597 48 23.3158 45.544 23.3158 42.5143C23.3158 39.4845 20.8597 37.0286 17.8297 37.0286C14.7999 37.0286 12.3437 39.4845 12.3437 42.5143C12.3437 45.544 14.7999 48 17.8297 48ZM37.031 48C40.061 48 42.5171 45.544 42.5171 42.5143C42.5171 39.4845 40.061 37.0286 37.031 37.0286C34.001 37.0286 31.5449 39.4845 31.5449 42.5143C31.5449 45.544 34.001 48 37.031 48Z" fill="#212121"/>
</svg>
